<?xml version="1.0" encoding="UTF-8" standalone="no"?>
<svg
   xmlns:dc="http://purl.org/dc/elements/1.1/"
   xmlns:cc="http://creativecommons.org/ns#"
   xmlns:rdf="http://www.w3.org/1999/02/22-rdf-syntax-ns#"
   xmlns:svg="http://www.w3.org/2000/svg"
   xmlns="http://www.w3.org/2000/svg"
   viewBox="0 0 800 506.66666"
   height="506.66666"
   width="800"
   id="svg2"
   version="1.1">
  <metadata
     id="metadata8">
    <rdf:RDF>
      <cc:Work
         rdf:about="">
        <dc:format>image/svg+xml</dc:format>
        <dc:type
           rdf:resource="http://purl.org/dc/dcmitype/StillImage" />
        <dc:title></dc:title>
      </cc:Work>
    </rdf:RDF>
  </metadata>
  <defs
     id="defs6" />
  <g
     id="g10">
    <path
       id="path14"
       d="m 462.66667,494.93699 c -1.1,-0.3686 -2.42814,-1.33021 -2.9514,-2.13692 -1.46768,-2.26268 -238.62715,-2.0646 -239.38196,0.19992 -0.65672,1.97026 -5.24748,2.24758 -5.88887,0.35574 -0.27359,-0.80699 -16.66613,-1.5133 -42.64185,-1.83731 -23.20859,-0.28951 -42.70859,-0.83408 -43.33334,-1.21016 -1.53794,-0.92577 -75.427667,-0.0724 -83.802583,0.96789 C 41,491.73161 37.8,492.68078 37.555556,493.38545 c -0.589301,1.6988 -4.222223,1.65394 -4.222223,-0.0521 0,-0.73334 -1.35,-1.35242 -3,-1.37574 -4.558914,-0.0644 -7.666666,-3.1245 -7.666666,-7.54904 0,-4.85276 -1.038463,-4.65414 26.479181,-5.06452 16.836911,-0.25109 22.078731,-0.74564 22.979583,-2.168 0.842678,-1.33052 1.172744,-1.37945 1.187485,-0.17604 0.0132,1.07868 2.097973,1.66667 5.909307,1.66667 3.461544,0 6.16764,-0.68699 6.565158,-1.66667 0.475944,-1.17296 1.002559,-1.2372 1.777778,-0.21686 1.291601,1.7 1.503402,1.70838 63.756841,2.52184 31.05137,0.40573 48.14953,1.10964 48.44445,1.99437 0.69499,2.08499 27.83603,1.80175 28.68384,-0.29935 0.53802,-1.33333 0.69356,-1.33333 0.77778,0 0.13,2.05767 18.77193,2.3887 18.77193,0.33334 0,-0.8381 8.66667,-1.33334 23.33333,-1.33334 14.66667,0 23.33334,0.49524 23.33334,1.33334 0,0.86522 17.58178,1.33333 50.07869,1.33333 33.04627,0 49.79841,-0.45348 49.25464,-1.33333 -0.5216,-0.84398 2.87504,-1.33334 9.25464,-1.33334 5.54328,0 10.07869,0.5078 10.07869,1.12843 0,0.85644 24.98775,3.1314 34,3.09545 37.33063,-0.14886 104.11442,-2.05317 104.44444,-2.97817 0.64788,-1.81588 3.88772,-1.52399 4.67252,0.42096 0.53802,1.33333 0.69356,1.33333 0.77778,0 0.13774,-2.18097 11.68356,-2.26513 12.40845,-0.0904 0.71473,2.1442 92.97148,2.00941 94.29852,-0.13777 1.43609,-2.32364 108.02297,-2.33042 109.45896,-0.007 1.46304,2.36725 0.35943,3.90184 -2.80603,3.90184 -1.42338,0 -2.58797,0.9 -2.58797,2 0,1.1 -0.75,1.99843 -1.66667,1.99652 -0.91666,-0.001 -31.06666,0.31824 -67,0.71145 -35.93333,0.39322 -102.14604,0.91083 -147.13934,1.15026 -50.4384,0.2684 -82.13602,0.92758 -82.66667,1.71913 -1.22985,1.83453 -4.52691,2.80832 -6.86065,2.02631 z M 24.333333,473.70895 c -1.054624,-0.3783 -1.666666,-3.25004 -1.666666,-7.82006 0,-3.97223 -0.6,-7.22223 -1.333334,-7.22223 -0.740741,0 -1.333333,-3.55556 -1.333333,-8 0,-4.44444 0.592592,-8 1.333333,-8 2.113512,0 1.785138,-56.92779 -0.333333,-57.78739 -1.258341,-0.51058 -1.176677,-1.05266 0.333333,-2.21261 1.510011,-1.15995 1.591675,-1.70203 0.333334,-2.21261 C 19.594669,379.6133 19.456699,376 21.496593,376 c 1.043482,0 1.079295,-0.5046 0.118294,-1.66667 C 20.85682,373.41666 20.051191,369.66666 19.8246,366 c -0.371991,-6.01954 -0.124627,-6.70803 2.548379,-7.09274 1.628192,-0.23433 2.960354,-1.0272 2.960354,-1.7619 0,-5.47202 17.469142,-7.78168 59,-7.80063 15.770177,-0.007 24.999997,-0.50365 24.999997,-1.34473 0,-1.96119 10.33967,-1.64786 10.99968,0.33333 0.43226,1.29749 15.14999,1.73819 66.44444,1.98955 36.23907,0.17758 69.06492,0.67397 72.94635,1.10308 6.48791,0.71726 6.98539,1.01386 6.16769,3.67712 -0.48918,1.5933 -0.97077,3.0028 -1.0702,3.13221 -0.28418,0.36992 -77.17541,1.81711 -93.48796,1.75956 -8.06666,-0.0284 -23.06666,-0.32307 -33.33333,-0.65471 -10.26667,-0.33164 -39.366667,-0.23597 -64.666667,0.21259 l -46,0.81557 0.138394,56.52431 c 0.07612,31.08836 -0.223884,56.72453 -0.666667,56.96925 -0.442783,0.24472 -1.55506,0.17591 -2.471727,-0.15291 z M 770.66667,453.99999 c 0,-12.88889 0.50178,-20.66666 1.33333,-20.66666 0.73333,0 1.33333,-1.2 1.33333,-2.66667 0,-1.46667 -0.6,-2.66667 -1.33333,-2.66667 -2.01676,0 -1.69888,-16.96278 0.33333,-17.78738 1.25495,-0.5092 1.17262,-1.03071 -0.33333,-2.11111 -1.77777,-1.27541 -1.77777,-1.59427 0,-2.86968 1.50595,-1.0804 1.58828,-1.60191 0.33333,-2.11111 -1.06557,-0.43237 -1.66666,-3.4814 -1.66666,-8.45405 0,-4.97465 0.60066,-8.02015 1.66666,-8.45029 1.33334,-0.53802 1.33334,-0.69356 0,-0.77778 -1.20208,-0.0759 -1.66666,-3.45029 -1.66666,-12.10526 0,-11.14163 0.19221,-12 2.68716,-12 2.65294,0 2.68628,0.72167 2.61718,56.66666 -0.0684,55.39683 -0.12866,56.66667 -2.68717,56.66667 -2.48811,0 -2.61717,-1.01916 -2.61717,-20.66667 z m -42.5764,12.83535 c -0.78298,-1.46303 -1.4236,-7.49948 -1.4236,-13.41436 0,-6.28065 -0.55466,-10.75432 -1.33334,-10.75432 -0.73333,0 -1.33333,-1.5 -1.33333,-3.33333 0,-1.83334 0.6,-3.33334 1.33333,-3.33334 0.73334,0 1.33334,-1.5 1.33334,-3.33333 0,-1.83333 -0.6,-3.33333 -1.33334,-3.33333 -0.73333,0 -1.33333,-1.2 -1.33333,-2.66667 0,-2.45855 -0.88889,-2.66667 -11.38961,-2.66667 -12.92708,0 -14.92855,1.06522 -14.17234,7.54278 0.50946,4.3638 0.65472,4.45722 6.93004,4.45722 6.75427,0 8.51712,1.55968 6.40483,5.66667 -0.83463,1.62277 -2.79564,2.33333 -6.43959,2.33333 -3.81554,0 -5.61462,0.70091 -6.61976,2.57902 -2.43629,4.55226 -1.58913,5.42098 5.28643,5.42098 3.66667,0 6.66667,-0.6 6.66667,-1.33333 0,-1.52877 5.28036,-1.8526 5.43534,-0.33333 0.0561,0.55 0.32286,2.18514 0.59278,3.63365 0.60669,3.25588 -1.44155,4.65271 -6.86146,4.67927 -6.9841,0.0343 -12.5,1.58768 -12.5,3.52041 0,2.71517 -3.98413,2.22856 -4.09372,-0.5 -0.0801,-1.99525 -0.25974,-1.94696 -1.23961,0.33333 -0.91445,2.12804 -1.16484,2.21782 -1.23961,0.44444 -0.0516,-1.22221 -0.84372,-2.52653 -1.76039,-2.89849 -1.32475,-0.53752 -1.31844,-0.92228 0.0307,-1.87544 1.22401,-0.86475 1.70565,-6.06723 1.72708,-18.65505 0.0204,-11.96743 0.53476,-17.8684 1.63596,-18.76787 0.88344,-0.72159 7.46724,-1.69292 14.63066,-2.15853 11.00243,-0.71514 13.14627,-0.52902 13.80932,1.19885 0.4317,1.12499 2.17164,2.04543 3.86654,2.04543 5.64188,0 7.29973,1.39506 7.29973,6.14265 0,2.4882 0.6,4.52401 1.33333,4.52401 0.73334,0 1.33334,-0.53496 1.33334,-1.18878 0,-0.65384 1.45804,-1.55474 3.24009,-2.002 1.78205,-0.44727 4.18205,-1.75518 5.33333,-2.90646 1.15128,-1.15128 2.09324,-1.45037 2.09324,-0.66466 0,0.78572 0.9,1.42857 2,1.42857 1.24444,0 2,1.25925 2,3.33333 0,2.92064 -0.57777,3.33334 -4.66666,3.33334 -2.56667,0 -4.66667,0.55957 -4.66667,1.24348 0,0.68392 -1.2,1.62434 -2.66667,2.08985 -1.46666,0.46551 -2.66666,1.67867 -2.66666,2.69591 0,2.13337 5.39138,7.86274 8.53353,9.0685 1.17323,0.45022 2.13313,1.37235 2.13313,2.0492 0,0.67684 1.39554,1.5809 3.1012,2.00899 7.89234,1.98085 14.93967,13.93063 9.45642,16.03475 -2.9575,1.1349 -3.22428,1.04818 -3.22428,-1.04803 0,-1.02155 -0.9,-2.20271 -2,-2.62483 -1.1,-0.4221 -2,-1.46749 -2,-2.32308 0,-2.4633 -5.86623,-7.2516 -11.78587,-9.62016 l -5.42721,-2.17154 -0.39347,8.85888 c -0.40864,9.20066 -2.38201,12.07549 -4.96985,7.24009 z m -170.73652,0.24635 c -0.0107,-0.87174 -2.72042,-1.98986 -6.02042,-2.48472 -3.58125,-0.53704 -6,-1.60019 -6,-2.63726 0,-0.95562 -0.54196,-1.93749 -1.20434,-2.18194 -1.40183,-0.51732 -4.11975,-21.23462 -4.12523,-31.44444 -0.004,-6.88972 0.0592,-7 3.99624,-7 2.2,0 4,-0.6 4,-1.33334 0,-0.73333 2.1,-1.33333 4.66667,-1.33333 2.56666,0 4.66666,0.58857 4.66666,1.30793 0,0.71936 1.48428,1.68046 3.29839,2.13578 2.41339,0.60572 3.51939,2.00588 4.12205,5.21833 0.83214,4.43571 -1.0979,10.00463 -3.46734,10.00463 -0.70754,0 -1.28643,1.2 -1.28643,2.66666 0,1.46667 0.85957,2.66667 1.91015,2.66667 1.05058,0 2.29101,1.2 2.75652,2.66667 1.48425,4.67646 3.33333,2.86853 3.33333,-3.25914 0,-4.86566 0.80115,-6.80029 4.47819,-10.814 3.9299,-4.28973 4.99236,-4.77528 8.67776,-3.96582 5.3502,1.17509 7.44864,4.74797 4.80906,8.1881 -1.86846,2.43516 -2.01709,2.40847 -4.54301,-0.81581 -3.67891,-4.69604 -5.76735,-2.08983 -6.50576,8.11871 -0.53835,7.44262 -0.28784,8.4387 2.85529,11.35318 3.99671,3.70596 12.13476,4.4328 13.37731,1.19478 0.42211,-1.1 1.98629,-2 3.47599,-2 3.30585,0 3.55705,-3.34194 0.48232,-6.41667 -1.61894,-1.61893 -2.37666,-1.77481 -2.77779,-0.57143 -0.89641,2.68924 -4.32936,1.88686 -4.32936,-1.0119 0,-1.46667 0.79732,-2.66667 1.77183,-2.66667 1.22977,0 1.86564,-2.31847 2.07842,-7.57829 0.23275,-5.75278 0.97154,-8.15499 3.06695,-9.97232 3.39785,-2.94695 5.07711,-2.08138 5.101,2.6293 0.0367,7.22407 1.38544,9.58798 5.47064,9.58798 3.38277,0 3.84449,-0.4804 3.84449,-4 0,-2.2 -0.6,-4 -1.33333,-4 -0.73333,0 -1.33333,-0.93542 -1.33333,-2.0787 0,-1.14328 0.6,-1.70786 1.33333,-1.25464 0.73333,0.45323 1.33333,0.18864 1.33333,-0.58797 0,-0.77661 1.156,-0.25603 2.56888,1.15685 2.58123,2.58123 4.24332,8.76059 4.68852,17.43112 0.30104,5.86266 1.87695,10.66667 3.49912,10.66667 0.68391,0 1.24348,1.2 1.24348,2.66667 0,1.46666 -0.6,2.66666 -1.33333,2.66666 -0.73333,0 -1.33333,0.86459 -1.33333,1.92131 0,2.4918 -1.90051,3.62233 -4.4468,2.64524 -1.95111,-0.74872 -3.48228,-6.59495 -4.77543,-18.23321 -0.16109,-1.44987 -8.11111,-1.23206 -8.11111,0.22222 0,0.67222 0.52023,1.42222 1.15606,1.66667 0.63584,0.24444 1.57901,3.89444 2.09594,8.11111 0.93046,7.5897 0.90547,7.66666 -2.48938,7.66666 -2.82663,0 -3.44778,-0.64437 -3.53455,-3.66666 -0.0579,-2.01667 -0.40789,-2.91667 -0.77777,-2 -0.36988,0.91666 -1.82252,1.66666 -3.22807,1.66666 -1.40556,0 -2.55556,0.76666 -2.55556,1.70368 0,2.65928 -5.01507,6.29632 -8.68191,6.29632 -1.82494,0 -3.31809,-0.6 -3.31809,-1.33333 0,-0.73333 -0.91485,-1.33333 -2.033,-1.33333 -1.11815,0 -2.60331,-1.5 -3.30033,-3.33334 -1.50127,-3.94862 -5.33334,-4.47105 -5.33334,-0.72708 0,1.95932 -1.24109,2.83447 -5,3.52566 -2.75,0.50568 -5.44081,1.58286 -5.97958,2.39374 -0.6951,1.04616 -0.98551,1.01404 -1,-0.11066 z m -0.0204,-11.0817 c 0,-0.73333 1.2,-1.33333 2.66667,-1.33333 1.46667,0 2.66667,-0.6 2.66667,-1.33333 0,-0.73334 -0.45772,-1.33334 -1.01716,-1.33334 -0.55944,0 -1.60944,-1.35 -2.33334,-3 -0.96741,-2.20505 -2.64109,-3.10965 -6.31617,-3.41382 -4.91903,-0.40711 -5,-0.33694 -5,4.33333 0,3.33081 0.59672,4.74716 2,4.74716 1.1,0 2,0.6 2,1.33333 0,0.73334 1.2,1.33334 2.66667,1.33334 1.46666,0 2.66666,-0.6 2.66666,-1.33334 z m -5.09524,-20.40793 c 0.96906,-0.95771 2.85626,-2.15589 4.19379,-2.66264 3.83977,-1.45477 2.17561,-5.53424 -2.4428,-5.98816 -5.57488,-0.54793 -8.67551,2.14237 -7.75111,6.7254 0.7969,3.95091 3.1776,4.71487 6.00012,1.9254 z M 257.5642,464.14267 c -0.99771,-0.61661 -1.88265,-5.37149 -2.25576,-12.12033 -0.33767,-6.10809 -0.92021,-11.41189 -1.29453,-11.78621 -0.37432,-0.37432 -0.68058,0.0194 -0.68058,0.87497 0,0.85556 -1.8,1.55556 -4,1.55556 -2.2,0 -4,-0.6 -4,-1.33333 0,-0.73334 -0.88857,-1.33334 -1.9746,-1.33334 -1.08602,0 -2.35106,-1.5 -2.81121,-3.33333 -0.46013,-1.83333 -1.37156,-3.33333 -2.0254,-3.33333 -0.65383,0 -1.18879,-3.3 -1.18879,-7.33334 0,-4.03333 0.46846,-7.33333 1.04102,-7.33333 0.57256,0 1.74302,-1.85984 2.60105,-4.13299 0.85903,-2.27584 2.30576,-3.8844 3.21961,-3.57978 2.27059,0.75686 3.83512,7.2288 2.88994,11.9547 -0.94015,4.70071 2.99809,9.0914 8.1545,9.0914 2.64984,0 3.59766,-0.90666 4.52996,-4.33333 0.64844,-2.38333 1.8656,-4.18333 2.70479,-4 0.83919,0.18333 1.5258,-0.26667 1.5258,-1 0,-0.73333 1.2,-1.33333 2.66667,-1.33333 1.95556,0 2.66666,0.88889 2.66666,3.33333 0,1.83333 -0.52202,3.33333 -1.16005,3.33333 -0.63803,0 -1.916,2.7 -2.83995,6 -0.92394,3.3 -2.20192,6 -2.83994,6 -1.88802,0 -1.40668,16.99602 0.50661,17.8889 1.33333,0.62221 1.33333,0.93333 0,1.55554 -0.91667,0.42779 -1.66667,1.59238 -1.66667,2.58799 0,2.3978 -1.73349,3.36835 -3.76913,2.11025 z m 53.72356,-0.21641 c -0.47828,-0.77389 -0.71852,-4.52389 -0.53387,-8.33333 0.78678,-16.23027 -0.0332,-27.59294 -1.99128,-27.59294 -2.37874,0 -4.47557,-14.1537 -2.40376,-16.22552 2.69114,-2.69113 6.18646,-0.5313 7.39239,4.5679 0.64919,2.74502 1.72073,4.99096 2.38121,4.99096 0.66048,0 1.20088,1.8 1.20088,4 0,2.60909 0.67364,4 1.93727,4 2.77959,0 9.15877,-2.99642 10.76457,-5.05631 1.95032,-2.50183 5.83364,-0.59729 6.82347,3.34649 0.9358,3.72852 -1.04971,5.65667 -5.85864,5.6894 -1.65,0.0107 -3,0.62042 -3,1.35375 0,0.73333 -1.2,1.33333 -2.66667,1.33333 -5.8703,0 -2.00237,5.35898 5.70351,7.90215 2.72973,0.90089 4.96316,2.19147 4.96316,2.86792 0,0.67647 1.5,1.22993 3.33333,1.22993 3.42834,0 3.92724,0.90088 2.52402,4.55762 -1.39002,3.62233 -9.98704,1.69921 -12.9236,-2.89095 -0.58644,-0.91667 -1.93644,-1.66667 -3,-1.66667 -1.06356,0 -1.93375,-0.6 -1.93375,-1.33333 0,-0.73333 -1.11324,-1.33333 -2.47387,-1.33333 -2.07961,0 -2.60636,1.41896 -3.30532,8.904 -0.73845,7.90788 -2.17865,11.0099 -5.14212,11.07558 -0.50672,0.0107 -1.31264,-0.61277 -1.79093,-1.38665 z m 104.37891,0.48796 c -1.28334,-0.33536 -2.33334,-1.46576 -2.33334,-2.51199 0,-1.58144 -1.71937,-2.54253 -3,-1.67693 -0.18333,0.12387 -1.6172,-0.4618 -3.18637,-1.30159 -2.48949,-1.33234 -2.87184,-2.76269 -3.0006,-11.2253 -0.0812,-5.33414 -0.74729,-9.89842 -1.48029,-10.14286 -2.58184,-0.86101 -1.47479,-9.78622 1.53794,-12.39916 4.98527,-4.3237 21.12932,-3.05094 21.12932,1.66578 0,1.38113 0.6,2.51116 1.33334,2.51116 0.73333,0 1.33333,0.9 1.33333,2 0,1.1 -0.53496,2 -1.18879,2 -0.65384,0 -1.56526,1.5 -2.0254,3.33333 -0.46014,1.83333 -1.42518,3.33333 -2.14454,3.33333 -3.01571,0 -1.00924,2.10978 2.26412,2.38068 4.69764,0.38879 8.02934,4.13871 9.19429,10.34842 0.69428,3.7008 0.43148,5.41537 -0.99388,6.48434 -1.06575,0.79928 -2.33171,2.50323 -2.81325,3.78656 -0.66054,1.76038 -2.27726,2.29536 -6.58404,2.17867 -3.13968,-0.0851 -6.75851,-0.42907 -8.04184,-0.76444 z M 428,456.77571 c 0,-0.30669 0.36419,-1.50669 0.80932,-2.66666 0.45004,-1.1728 0.12587,-2.10906 -0.73033,-2.10906 -0.84682,0 -2.9298,-1.5 -4.62888,-3.33333 -3.0929,-3.33729 -7.45011,-4.507 -7.45011,-2 0,0.73333 -0.9,1.33333 -2,1.33333 -1.1,0 -2,-0.7 -2,-1.55556 0,-0.85554 -0.38076,-1.17478 -0.84613,-0.70941 -1.35811,1.35809 2.32302,8.93164 4.34122,8.93164 1.01103,0 1.83824,0.6 1.83824,1.33333 0,0.73334 2.4,1.33334 5.33334,1.33334 2.93333,0 5.33333,-0.25094 5.33333,-0.55762 z m -12.75592,-20.77572 c 0.97803,0 2.12441,-1.3238 2.54753,-2.94177 0.91779,-3.50967 1.0468,-3.34751 -3.12494,-3.92785 -3.0901,-0.42987 -3.35855,-0.0259 -3.67879,5.53629 -0.27096,4.70645 -0.0411,5.49696 1.06625,3.66667 0.77644,-1.28334 2.21192,-2.33334 3.18995,-2.33334 z m 47.42259,26.87051 c 0,-1.45656 -0.67847,-2.87444 -1.5077,-3.15085 -1.98926,-0.66308 -2.14789,-26.28342 -0.17032,-27.50918 0.77834,-0.48242 1.7159,-2.67714 2.08347,-4.87714 0.89279,-5.34363 2.2994,-8.66667 3.66851,-8.66667 2.06317,0 7.4534,5.95131 9.35912,10.33333 1.0365,2.38334 2.63808,4.33334 3.55906,4.33334 0.92099,0 1.67452,1.5 1.67452,3.33333 0,2.84387 0.61134,3.33333 4.16326,3.33333 3.5495,0 3.91856,0.29484 2.50341,2 -0.91292,1.1 -2.55636,2 -3.65211,2 -1.41536,0 -1.75944,0.86871 -1.18828,3 0.44219,1.65 0.81218,4.08542 0.82219,5.41203 0.0107,1.32661 0.6182,2.0412 1.35153,1.58797 0.80298,-0.49626 1.33334,1.27194 1.33334,4.44532 0,5.36304 -1.46198,6.88802 -6.60344,6.88802 -1.97295,0 -2.54168,-1.58674 -3.28972,-9.17816 l -0.9044,-9.17816 -4.70686,1.06157 c -5.38641,1.21483 -6.98341,2.36828 -5.12364,3.70057 0.7121,0.51014 1.53576,2.42751 1.83035,4.26084 1.17296,7.29951 0.8434,8.66018 -2.20229,9.09274 -2.24719,0.31914 -3,-0.2385 -3,-2.22223 z M 468,441.33333 c 0,-0.73334 1.5,-1.33334 3.33333,-1.33334 2,0 3.33334,-0.7619 3.33334,-1.90476 0,-2.81288 -4.04895,-6.36176 -6.28098,-5.50525 -1.06541,0.40884 -2.18805,0.74335 -2.49474,0.74335 -0.30668,0 -0.55762,2.1 -0.55762,4.66666 0,2.56667 0.6,4.66667 1.33334,4.66667 0.73333,0 1.33333,-0.6 1.33333,-1.33333 z m -324.41221,19.90105 c -0.39778,-1.52109 -1.96775,-3.09107 -3.48884,-3.48884 -1.52108,-0.39777 -2.76562,-1.55325 -2.76562,-2.56772 0,-1.01447 -0.45,-1.84917 -1,-1.85489 -1.34954,-0.014 -4.33333,-6.60606 -4.33333,-9.57351 0,-3.23768 4.05388,-7.74943 6.96299,-7.74943 1.30369,0 2.37953,-0.75 2.39076,-1.66666 0.0151,-1.23219 0.31788,-1.19727 1.1615,0.13398 0.63587,1.00343 0.61536,4.14043 -0.0463,7.0854 -1.29182,5.74947 -0.69755,7.78062 2.27644,7.78062 1.05672,0 1.9213,0.6 1.9213,1.33333 0,0.73333 1.5,1.33333 3.33334,1.33333 3.15152,0 3.33333,-0.4 3.33333,-7.33333 0,-4.03333 -0.6,-7.33333 -1.33333,-7.33333 -0.73334,0 -1.33334,-1.42672 -1.33334,-3.17051 -6e-5,-3.90755 -3.61329,-12.82949 -5.19578,-12.82949 -1.52395,0 -2.81914,-5.07654 -1.90376,-7.46194 0.81388,-2.12094 5.76614,-2.58306 5.76614,-0.53806 0,0.73333 0.84016,1.33333 1.86702,1.33333 1.1526,0 2.50217,2.67856 3.52692,7 0.91294,3.85 2.07682,7.3 2.58641,7.66667 0.50957,0.36666 1.52763,4.46736 2.26233,9.11265 1.63371,10.32947 -0.078,19.69227 -3.77709,20.6596 -1.35608,0.35461 -2.46559,1.60093 -2.46559,2.76959 0,3.47022 -8.82218,2.89014 -9.74554,-0.64079 z m 373.74554,0.76561 c 0,-1.12801 -1.19289,-2 -2.73602,-2 -1.84127,0 -3.19204,-1.3081 -4.13043,-4 -0.76693,-2.2 -1.93572,-4 -2.59732,-4 -0.66159,0 -1.20289,-3.63541 -1.20289,-8.07869 0,-4.44328 0.53421,-7.74852 1.18713,-7.345 0.65292,0.40353 1.55551,-1.22993 2.00575,-3.62991 1.82913,-9.7501 12.2311,-12.31528 19.42289,-4.78977 2.13872,2.23797 4.27277,5.81825 4.74235,7.9562 0.46956,2.13795 1.40609,3.88717 2.08116,3.88717 0.67505,0 1.22738,1.2 1.22738,2.66667 0,1.46667 -0.6,2.66667 -1.33333,2.66667 -0.73333,0 -1.33333,1.11046 -1.33333,2.4677 0,4.62752 -2.88411,10.75494 -5.44478,11.56767 -1.40537,0.44604 -2.55522,1.67056 -2.55522,2.72115 0,1.29413 -1.50498,1.91014 -4.66667,1.91014 -3.25925,0 -4.66667,-0.60317 -4.66667,-2 z m 10.39294,-17.51182 c 0.44897,-9.34484 -1.84688,-13.25234 -6.86676,-11.68706 -3.9083,1.21866 -4.81526,2.95811 -4.8391,9.2808 -0.0241,6.39999 3.98774,11.62854 8.4362,10.99466 2.53794,-0.36163 2.923,-1.37307 3.26966,-8.5884 z m 106.9404,17.51182 c 0,-1.26369 -1.27314,-2 -3.45816,-2 -2.33683,0 -3.68428,-0.86469 -4.15551,-2.66666 -0.38355,-1.46667 -1.22737,-2.66667 -1.87517,-2.66667 -0.6478,0 -1.17783,-4.8 -1.17783,-10.66667 0,-5.86666 0.55827,-10.66666 1.2406,-10.66666 0.68233,0 1.43233,-1.35 1.66667,-3 0.27965,-1.9691 1.34242,-3 3.09273,-3 2.29249,0 2.60751,0.74834 2.24503,5.33333 -0.23191,2.93333 -0.98191,5.90333 -1.66667,6.6 -1.58756,1.61515 -1.63339,8.73333 -0.0563,8.73333 0.65384,0 1.56527,1.5 2.0254,3.33334 0.92872,3.70028 5.4393,4.50458 10.3933,1.85328 2.59609,-1.38939 2.71237,-2.23579 1.89824,-13.8178 l -0.86727,-12.33775 3.28388,0.62775 c 4.69401,0.89732 7.17924,11.99601 4.92801,22.00785 -1.54894,6.8886 -5.03241,10.33333 -10.44949,10.33333 -0.9538,0 -1.73419,0.9 -1.73419,2 0,1.11111 -1.18518,2 -2.66666,2 -1.48148,0 -2.66667,-0.88889 -2.66667,-2 z M 95.093223,457.76521 c -0.494292,-1.33754 -1.523887,-2.84851 -2.28799,-3.35772 -1.802362,-1.20112 -1.338965,-24.22959 0.499902,-24.84254 0.748842,-0.24961 1.361532,-1.86478 1.361532,-3.58926 0,-6.8621 4.453541,-13.9757 8.749633,-13.9757 2.43601,0 7.22638,4.94158 10.13335,10.45324 2.10502,3.99114 7.40004,9.54676 9.09893,9.54676 2.08969,0 2.96687,2.72018 1.46193,4.53352 -0.81296,0.97955 -1.30376,5.66974 -1.11479,10.65303 0.25112,6.62205 -0.15848,9.21059 -1.59873,10.10359 -2.36367,1.46553 -4.06366,0.57417 -4.06366,-2.13074 0,-1.10909 -0.9,-2.91654 -2,-4.01654 -1.1,-1.1 -2,-3.53214 -2,-5.40476 0,-3.10223 -0.37024,-3.33071 -4.16666,-2.57143 -2.29167,0.45833 -4.96173,0.83333 -5.93346,0.83333 -1.21521,0 -1.89164,2.38948 -2.16667,7.65371 -0.31571,6.04277 -0.89184,7.74733 -2.737239,8.09855 -1.332804,0.25365 -2.723617,-0.60035 -3.236078,-1.98704 z M 112,432.80931 c 0,-3.25394 -3.061,-5.5005 -6.66667,-4.89285 -2.52406,0.42537 -2.28993,0.11827 -3.3695,4.4196 -0.89125,3.55104 -0.75079,3.66393 4.55829,3.66393 4.88887,0 5.47788,-0.34308 5.47788,-3.19068 z m 235.23367,25.41176 c -0.44724,-1.16552 0.14221,-4.03424 1.3099,-6.37494 1.45795,-2.92254 2.1231,-7.92647 2.1231,-15.9723 0,-11.18845 1.9349,-16.96012 3.57858,-10.67466 0.40284,1.54045 1.26246,2.80082 1.91026,2.80082 0.6478,0 1.17782,3.6 1.17782,8 0,4.44444 -0.59258,8 -1.33333,8 -0.73333,0 -1.33333,2.1 -1.33333,4.66667 v 4.66667 h 11.12194 11.12196 l -0.78862,-5.66667 c -0.43374,-3.11667 -0.78862,-8.95801 -0.78862,-12.98076 0,-6.09828 0.41672,-7.39451 2.5069,-7.79785 3.6787,-0.7099 4.98102,2.30045 4.06604,9.39884 -1.08894,8.44781 1.2966,15.46222 5.62829,16.54941 1.83004,0.45932 3.95161,0.21085 4.71461,-0.55215 2.07506,-2.07505 0.80876,-21.47294 -1.49469,-22.89656 -1.53919,-0.95126 -1.45716,-1.54206 0.48361,-3.48284 1.96475,-1.96474 2.5272,-2.03716 3.52916,-0.45433 0.65555,1.0356 1.20111,3.23291 1.21234,4.88291 0.0107,1.65 0.62041,3 1.35374,3 0.786,0 1.33334,4.72878 1.33334,11.51968 0,12.9193 -1.24784,15.02822 -8.93727,15.10458 -4.91596,0.0488 -11.06273,-2.41065 -11.06273,-4.42645 0,-0.75579 -0.75,-0.40012 -1.66667,0.79037 -1.24812,1.62096 -5.09291,2.39735 -15.30991,3.09162 -11.79386,0.8014 -13.75346,0.63981 -14.45642,-1.19206 z M 62.333333,457.74755 C 61.05,457.41219 60,456.58179 60,455.90223 c 0,-0.67957 -1.256172,-1.23557 -2.791493,-1.23557 -1.670154,0 -3.071616,-1.0712 -3.488842,-2.66667 -0.383541,-1.46666 -1.190606,-2.66666 -1.793476,-2.66666 -1.79334,0 -2.966592,-11.46796 -1.980612,-19.35948 0.50461,-4.03876 1.455696,-7.01056 2.113526,-6.60399 0.657828,0.40656 1.578688,-0.78535 2.046352,-2.64867 0.467665,-1.86333 1.685254,-3.38786 2.705756,-3.38786 1.020501,0 1.855456,-0.6 1.855456,-1.33334 0,-0.73333 2.483854,-1.33333 5.519676,-1.33333 6.926268,0 9.0481,2.56356 9.104586,11 0.03533,5.27835 -0.366642,6.33333 -2.413212,6.33333 -1.699556,0 -2.935721,-1.60244 -4.014952,-5.2046 -1.306321,-4.3601 -2.01842,-5.08454 -4.38869,-4.4647 -1.556146,0.40694 -3.119396,1.84901 -3.473891,3.2046 -0.354493,1.35558 -1.174556,2.4647 -1.822359,2.4647 -0.647804,0 -1.177825,3.6251 -1.177825,8.05575 0,11.20897 2.607712,13.97184 12.123495,12.84484 4.790212,-0.56733 7.480516,-1.64548 8.797393,-3.52559 2.290255,-3.2698 5.154223,-3.50641 6.300027,-0.52049 1.193872,3.11117 -0.369452,7.14549 -2.768924,7.14549 -1.119238,0 -2.334278,1.14454 -2.70009,2.5434 -0.939802,3.59382 -8.174437,5.09726 -15.418568,3.20416 z M 176,457.74717 c -3.33152,-1.38462 -6.66667,-5.97382 -6.66667,-9.17342 0,-1.66001 -0.75,-3.26864 -1.66666,-3.57472 -2.16396,-0.72257 -2.02258,-19.99152 0.15201,-20.71637 0.82021,-0.27341 2.46492,-2.54885 3.65489,-5.05655 1.83488,-3.8667 2.84956,-4.55945 6.67835,-4.55945 2.48311,0 4.51475,0.6 4.51475,1.33333 0,0.73334 0.88458,1.33334 1.96576,1.33334 1.08117,0 2.96997,1.95 4.19734,4.33333 1.22738,2.38333 3.34279,5.30371 4.70091,6.48973 1.92352,1.67976 2.46932,4.04972 2.46932,10.72222 0,7.98906 -0.32027,8.90536 -4.75659,13.60869 -4.71801,5.00197 -10.80786,7.10333 -15.24341,5.25987 z m 10.73077,-11.41384 c 3.81348,-4.03591 3.14896,-15.71723 -1.12037,-19.69472 -3.82792,-3.56624 -9.6104,-3.54936 -9.6104,0.028 0,1.46667 -0.6,2.66667 -1.33333,2.66667 -0.73334,0 -1.33334,3 -1.33334,6.66666 0,3.66667 0.6,6.66667 1.33334,6.66667 0.73333,0 1.33333,1.15 1.33333,2.55556 0,4.76151 6.63265,5.44828 10.73077,1.11111 z m 29.86643,11.31292 c -1.84768,-1.29024 -5.93053,-10.13523 -5.93053,-12.84776 0,-1.17251 -0.57934,-2.13183 -1.28742,-2.13183 -0.70806,0 -1.69064,-3.03971 -2.18348,-6.75491 -0.49284,-3.7152 -1.68388,-7.54272 -2.64676,-8.5056 -3.04524,-3.04524 -3.79036,-8.60265 -1.28246,-9.56502 3.67545,-1.4104 6.89794,3.64724 9.50688,14.92082 1.34553,5.81426 3.22194,11.05119 4.16982,11.63763 0.94788,0.58644 1.72342,1.93644 1.72342,3 0,2.77452 3.96289,2.39633 4.1872,-0.39959 0.10293,-1.28333 0.0356,-8.53389 -0.14982,-16.11237 l -0.33701,-13.77903 3.14981,0.4457 c 3.12678,0.44244 3.14896,0.56785 3.03254,17.14389 -0.11187,15.93151 -0.27196,16.86508 -3.48623,20.33333 -3.39005,3.65792 -5.87361,4.42498 -8.46596,2.61474 z m 445.94705,-2.86224 c -2.75789,-2.96383 -3.21092,-4.7675 -3.21092,-12.78402 0,-5.13333 -0.50586,-11.52517 -1.12414,-14.20408 -0.98424,-4.26462 -0.785,-4.97838 1.60112,-5.7357 3.09317,-0.98175 13.52302,1.45758 13.52302,3.16274 0,0.61611 1.78006,1.85751 3.95567,2.75868 2.17561,0.90116 4.35648,2.92396 4.84637,4.4951 0.4899,1.57113 1.45388,3.21922 2.14219,3.66242 1.94157,1.25019 1.92235,16.23866 -0.0216,16.88666 -0.90027,0.30008 -2.39428,1.30304 -3.32001,2.22877 -0.92574,0.92573 -4.72011,1.97497 -8.43195,2.33163 -5.98075,0.57468 -7.1142,0.25577 -9.95969,-2.8022 z m 12.12242,-4.11735 c 0,-0.73333 0.9,-1.33333 2,-1.33333 3.41185,0 2.59349,-9.88888 -1.1529,-13.93131 -3.9352,-4.24615 -10.18044,-4.69725 -10.18044,-0.73536 0,1.46667 0.6,2.66667 1.33334,2.66667 0.73333,0 1.33333,2.35093 1.33333,5.22428 0,2.87336 0.36419,6.17336 0.80932,7.33333 0.87929,2.29143 5.85735,2.95069 5.85735,0.77572 z m -40,-25.24348 c 0,-0.68392 -1.15831,-1.61112 -2.574,-2.06044 -4.60435,-1.46136 -5.261,-16.69608 -0.71964,-16.69608 1.00529,0 2.38742,-1 3.07141,-2.22223 0.76088,-1.3596 2.91743,-2.22221 5.55556,-2.22221 2.63813,0 4.79468,0.86261 5.55556,2.22221 0.68399,1.22223 2.04383,2.22223 3.02185,2.22223 3.62342,0 4.59027,10.31481 1.08926,11.62071 -1.28334,0.47869 -3.11736,1.95986 -4.0756,3.29149 -0.95826,1.33163 -2.94367,2.42113 -4.41203,2.42113 -1.46836,0 -2.29893,0.6 -1.84571,1.33334 0.45323,0.73333 -0.41136,1.33333 -1.9213,1.33333 -1.50995,0 -2.74536,-0.55957 -2.74536,-1.24348 z m 6.66666,-11.42319 c 0,-2.69136 -0.66032,-3.33333 -3.42857,-3.33333 -3.11688,0 -3.23809,0.19048 -1.33333,2.09524 1.15238,1.15237 2.09524,2.65237 2.09524,3.33333 0,0.68095 0.6,1.2381 1.33333,1.2381 0.73333,0 1.33333,-1.5 1.33333,-3.33334 z m -385.33333,-2 c 0,-2.93333 0.53496,-5.33333 1.18879,-5.33333 0.65384,0 1.58456,-1.57688 2.06828,-3.50417 0.48372,-1.92731 2.72057,-5.34526 4.97077,-7.59546 3.92384,-3.92384 4.16659,-3.98826 5.93172,-1.57432 2.64563,3.61811 2.28671,6.15124 -1.49452,10.548 -1.83244,2.13074 -3.33171,4.58892 -3.33171,5.46266 0,2.47658 -4.73845,7.32996 -7.1564,7.32996 -1.65086,0 -2.17693,-1.28883 -2.17693,-5.33334 z m -192,0.28484 c -2.466215,-0.85138 -8,-6.62972 -8,-8.35353 0,-0.69555 -0.6,-1.26464 -1.333333,-1.26464 -0.733334,0 -1.333334,-0.9 -1.333334,-2 0,-1.1 -0.75,-2.00919 -1.666666,-2.02041 -2.651966,-0.0325 1.955865,-2.60218 4.708513,-2.62584 1.306348,-0.0107 2.752412,1.02958 3.213472,2.31292 0.461061,1.28333 2.005783,3.46592 3.432715,4.85017 2.140022,2.07604 2.799634,2.1928 3.766109,0.66667 0.644429,-1.01759 1.180877,-2.90018 1.192107,-4.18351 0.0112,-1.28333 0.770417,-2.34152 1.687084,-2.35153 0.916666,-0.0107 3.110573,-0.40456 4.875349,-0.87675 2.987637,-0.7994 3.152295,-0.5766 2.390152,3.23411 C 75.765161,405.50753 67.556932,413.51275 64,412.28483 Z M 382.33333,401.7617 c -6.41666,-0.29271 -11.66666,-1.05092 -11.66666,-1.68493 0,-1.28367 -7.33775,-2.22266 -27.66667,-3.54043 -7.51667,-0.48724 -13.66667,-1.33912 -13.66667,-1.89307 0,-0.55393 -2.85,-1.41834 -6.33333,-1.9209 -10.07788,-1.45399 -12.33333,-2.22211 -12.33333,-4.20026 0,-1.02049 -1.06666,-1.85545 -2.37035,-1.85545 -2.40939,0 -6.96299,-4.33015 -6.96299,-6.62131 0,-1.90195 6.2173,-7.72302 9.2905,-8.69842 1.49022,-0.47299 2.7095,-1.32349 2.7095,-1.89004 0,-0.56653 2.55,-1.83043 5.66667,-2.80865 3.11667,-0.97823 6.15524,-2.19283 6.75239,-2.69914 1.38036,-1.17036 -2.65271,-5.28244 -5.18096,-5.28244 -1.04762,0 -1.90476,-0.9 -1.90476,-2 0,-1.1 -0.65383,-2 -1.45295,-2 -1.82813,0 -6.44347,-5.44148 -6.50269,-7.66666 -0.0244,-0.91667 -0.72556,-1.66667 -1.55814,-1.66667 -2.71873,0 -7.4599,-6.33152 -8.3687,-11.17585 -0.48892,-2.60614 -1.67062,-5.5201 -2.62599,-6.47547 -3.67112,-3.67112 -4.82487,-7.85229 -4.82487,-17.48531 0,-10.79018 0.75711,-14.1967 3.15526,-14.1967 2.99986,0 4.69057,4.77177 3.52376,9.94528 -1.13871,5.04882 0.50857,12.72138 2.73122,12.72138 0.63216,0 1.86844,2.4 2.7473,5.33334 0.87884,2.93333 2.33013,5.33333 3.22509,5.33333 1.53841,0 3.39411,3.62563 5.27732,10.31076 1.25279,4.44716 12.46809,15.04819 16.84663,15.92389 2.10472,0.42094 3.82676,1.28171 3.82676,1.91282 0,0.6311 2.7,1.82733 6,2.65829 3.3,0.83095 6,2.24461 6,3.14148 0,1.83144 8.4578,4.71943 13.82136,4.71943 1.93158,0 3.51197,0.521 3.51197,1.15777 0,0.63677 2.48647,1.49128 5.52549,1.89889 3.03903,0.40763 6.01508,1.53331 6.61347,2.50151 1.37097,2.21828 58.24401,2.36401 59.6552,0.15287 0.47988,-0.75191 4.77251,-1.74434 9.53917,-2.20536 11.94108,-1.15496 11.95976,-1.15876 11.2624,-2.28712 -0.34116,-0.552 1.48524,-1.69854 4.05866,-2.54784 2.57342,-0.84931 4.67894,-2.35723 4.67894,-3.35094 0,-0.99372 1.23062,-2.19733 2.73471,-2.6747 1.50408,-0.47739 4.52476,-2.61782 6.71263,-4.75652 2.18786,-2.13871 4.5721,-3.88856 5.2983,-3.88856 0.7262,0 1.89067,-1.5 2.5877,-3.33334 0.69702,-1.83333 1.81094,-3.33333 2.47537,-3.33333 0.66443,0 1.88792,-2.7 2.71887,-6 0.83096,-3.3 2.10218,-6 2.82496,-6 0.72277,0 1.31413,-1.12672 1.31413,-2.50384 0,-1.37711 0.9,-4.65783 2,-7.29051 1.1,-2.63266 2.00919,-6.75594 2.02041,-9.16282 0.0155,-3.31599 0.33355,-3.89164 1.31292,-2.37616 1.1489,1.77777 1.30534,1.77777 1.40796,0 0.0635,-1.1 0.38951,-4.25 0.72444,-7 0.51812,-4.25394 0.2268,-5 -1.95238,-5 -1.40876,0 -2.88503,0.84342 -3.2806,1.87426 -0.39558,1.03086 -2.67579,2.30402 -5.06712,2.82924 -2.39135,0.52523 -5.10216,1.70922 -6.02404,2.6311 -0.92187,0.92188 -4.40587,2.08548 -7.7422,2.5858 -3.33632,0.5003 -6.06606,1.47289 -6.06606,2.16129 0,0.6884 -2.4,1.25164 -5.33333,1.25164 -2.93333,0 -5.33333,0.6 -5.33333,1.33333 0,0.73334 -2.95,1.33334 -6.55556,1.33334 -3.60555,0 -6.75555,0.59997 -7,1.33329 -0.25787,0.77356 -6.0418,1.31837 -13.77778,1.29777 C 424,318.6116 416.5,318.5932 414.66667,318.59013 c -1.83334,-0.003 -8.12348,0.0427 -13.97811,0.1012 -6.33848,0.0635 -10.83343,-0.45935 -11.11111,-1.2924 C 389.32096,316.62956 387.36111,316 385.22223,316 c -2.1389,0 -3.8889,-0.6 -3.8889,-1.33334 0,-0.73333 -3.3,-1.33333 -7.33333,-1.33333 -4.03333,0 -7.33333,-0.51324 -7.33333,-1.14053 0,-0.62728 -3.98264,-1.51243 -8.85031,-1.96698 -4.86768,-0.45454 -10.34155,-1.80354 -12.16417,-2.99777 -1.82262,-1.19423 -2.90456,-1.50909 -2.40434,-0.69969 0.51478,0.83292 0.008,1.47164 -1.16916,1.47164 C 340.93541,308 340,307.4 340,306.66666 c 0,-0.73333 -0.90815,-1.33333 -2.01809,-1.33333 -2.68731,0 -6.85588,-2.52511 -11.55599,-7 -2.11816,-2.01667 -4.33871,-3.66667 -4.93455,-3.66667 -1.65022,0 -6.0981,-4.23361 -8.75508,-8.33333 -1.30697,-2.01667 -3.13737,-3.66667 -4.06753,-3.66667 -1.65535,0 -3.63589,-6.43516 -2.53084,-8.22316 0.30763,-0.49774 2.35244,-1.29884 4.54404,-1.7802 2.19159,-0.48134 3.98471,-1.37984 3.98471,-1.99664 0,-0.6168 1.8,-1.5168 4,-2 2.2,-0.4832 4,-1.73317 4,-2.77772 0,-1.12425 2.44821,-2.55397 6,-3.50393 3.3,-0.88261 6,-2.08032 6,-2.66155 0,-0.58124 1.46458,-1.0568 3.25464,-1.0568 1.79005,0 3.62546,-0.6 4.07869,-1.33333 C 342.45323,256.6 343.98864,256 345.41203,256 346.83541,256 348,255.45386 348,254.78636 c 0,-0.66751 5.1,-1.63847 11.33333,-2.15771 6.23334,-0.51923 11.33334,-1.47309 11.33334,-2.11969 0,-1.92226 21.00085,-1.44887 21.78362,0.49104 0.53802,1.33333 0.69356,1.33333 0.77778,0 0.1196,-1.89428 10.77193,-2.39328 10.77193,-0.5046 0,0.63913 6.65091,1.43609 14.77979,1.77101 8.12889,0.33492 15.17889,1.21475 15.66666,1.95515 1.39703,2.12054 12.62854,4.4451 21.47731,4.4451 4.44193,0 8.07624,0.52251 8.07624,1.16111 0,0.63861 3.64052,1.573 8.09003,2.0764 9.87349,1.11705 11.90997,1.84179 11.90997,4.23848 0,1.02153 1.2,1.85735 2.66667,1.85735 1.46666,0 2.66666,-0.57178 2.66666,-1.2706 0,-2.24447 -3.22544,-8.69662 -4.86773,-9.73735 -0.8748,-0.55436 -1.98511,-2.80436 -2.46735,-5 C 481.51601,249.79642 480.33813,248 479.38073,248 c -1.81768,0 -6.0474,-5.56262 -6.0474,-7.9531 0,-0.75913 -1.05,-2.53724 -2.33333,-3.95133 -3.56536,-3.92867 -4.82461,-5.7448 -7,-10.09557 -1.1,-2.2 -3.05,-5.16314 -4.33333,-6.58475 -1.28334,-1.42161 -2.33334,-3.34435 -2.33334,-4.27273 0,-1.93994 -6.17953,-8.47586 -8.01369,-8.47586 -0.6742,0 -1.86804,-1.2 -2.65297,-2.66666 -0.78494,-1.46667 -2.1602,-2.66667 -3.05615,-2.66667 -0.89595,0 -3.55629,-2.1 -5.91189,-4.66667 C 435.34303,194.1 432.83761,192 432.13104,192 c -0.70657,0 -1.68171,-1.25095 -2.16697,-2.77988 -0.48527,-1.52892 -2.6257,-3.38762 -4.75652,-4.13043 -2.13082,-0.74281 -3.87422,-1.89187 -3.87422,-2.55347 0,-0.66158 -0.75,-1.20362 -1.66666,-1.20452 -0.91667,-8.9e-4 -3.40999,-1.50089 -5.54072,-3.33333 -2.13074,-1.83244 -4.68074,-3.33171 -5.66667,-3.33171 -0.98593,0 -1.79261,-0.61286 -1.79261,-1.36192 0,-0.74905 -1.5,-2.04536 -3.33334,-2.88068 C 401.5,169.58873 400,168.1016 400,167.1193 c 0,-0.98228 -0.80701,-1.78597 -1.79335,-1.78597 -0.98634,0 -2.87933,-1.2 -4.20665,-2.66667 C 392.67268,161.2 390.76087,160 389.75151,160 c -1.00936,0 -2.15979,-0.84586 -2.5565,-1.87967 -0.39672,-1.03383 -2.32788,-2.28251 -4.29149,-2.77484 -1.9636,-0.49235 -4.61276,-1.89649 -5.88701,-3.12033 -5.768,-5.53979 -7.2033,-6.61154 -10.01651,-7.47939 -1.65,-0.50901 -3,-1.80387 -3,-2.87747 0,-1.0736 -0.84944,-2.27796 -1.88764,-2.67636 -3.18392,-1.22177 -8.52835,-10.16628 -10.27237,-17.19194 -0.91019,-3.66667 -2.41086,-7.42384 -3.3348,-8.34926 -0.92395,-0.92543 -2.09887,-4.52543 -2.61094,-8 -0.51208,-3.47458 -1.58225,-6.735933 -2.37816,-7.247464 -1.86454,-1.198329 -1.98213,-35.499817 -0.12613,-36.806554 0.72653,-0.511531 2.09799,-3.926895 3.04768,-7.589697 0.94969,-3.662802 2.58975,-7.142616 3.64456,-7.73292 1.05477,-0.590303 1.9178,-2.256687 1.9178,-3.703074 0,-2.993082 13.84569,-17.237698 16.75496,-17.237698 1.05144,0 1.91171,-0.631212 1.91171,-1.402693 0,-0.77148 1.8,-2.030176 4,-2.7971 2.2,-0.766924 4,-2.171519 4,-3.121322 0,-2.330052 3.09357,-3.361244 12.80408,-4.268024 9.71304,-0.907018 21.86258,1.575666 21.86258,4.467483 0,1.070136 0.53202,1.616897 1.18226,1.215025 0.65024,-0.40187 1.9237,0.162719 2.82993,1.254644 0.90621,1.091927 2.7742,1.98532 4.15107,1.98532 1.37688,0 2.50341,0.903968 2.50341,2.008818 0,1.10485 1.5,3.313052 3.33333,4.907114 1.83334,1.594063 3.33334,3.640095 3.33334,4.546738 0,0.906642 0.75,1.89792 1.66666,2.202837 1.2141,0.403852 1.66667,5.050305 1.66667,17.11111 0,19.484013 -0.23291,20.679281 -4.89961,25.144451 -7.37548,7.056977 -9.47604,8.249062 -15.8699,9.006318 -3.6101,0.427564 -6.56382,1.293815 -6.56382,1.925001 0,0.631187 -1.5,1.147612 -3.33334,1.147612 -1.83333,0 -3.33333,-0.521968 -3.33333,-1.15993 0,-0.637962 -2.83033,-1.478948 -6.28963,-1.868861 -3.45928,-0.389912 -6.50928,-1.367943 -6.77777,-2.173403 -0.26848,-0.80546 -1.22501,-1.464472 -2.12563,-1.464472 -1.77732,0 -4.94842,-2.768255 -10.09098,-8.809047 -4.04587,-4.752564 -4.67346,-16.090626 -1.08904,-19.675037 1.20909,-1.209102 2.62329,-3.544817 3.14265,-5.190476 1.47377,-4.669849 6.14856,-8.867565 10.89707,-9.784997 C 390.05,40.079971 392,39.169998 392,38.518278 c 0,-1.935581 5.36179,-1.346964 7.53607,0.827309 1.10673,1.10674 2.60426,1.646371 3.32784,1.19918 0.72357,-0.447192 1.64517,0.447294 2.04801,1.987744 0.40284,1.540452 1.48965,2.800822 2.41516,2.800822 3.27356,0 5.15855,7.668937 3.87429,15.762293 L 410,68.666666 l -8.16235,0.392518 c -7.54154,0.362664 -8.22466,0.159848 -8.9818,-2.666666 -1.19453,-4.459479 -1.03422,-8.791569 0.35716,-9.651488 2.11222,-1.305417 5.45366,0.778751 5.45366,3.401621 0,3.658552 5.13661,3.284387 6.53442,-0.475985 1.37436,-3.697263 0.57639,-6.079455 -3.4018,-10.15536 -2.67996,-2.745785 -3.86196,-3.038053 -9.10617,-2.251636 -3.31455,0.497048 -6.02645,1.46696 -6.02645,2.15536 0,0.6884 -0.85958,1.251636 -1.91015,1.251636 -1.05059,0 -2.29101,1.2 -2.75652,2.666667 -0.46551,1.466666 -1.35827,2.666666 -1.98391,2.666666 -1.83542,0 -2.98133,7.620151 -2.01024,13.367968 0.49342,2.920517 1.44395,4.972071 2.11231,4.559008 0.66835,-0.413061 1.21517,0.172957 1.21517,1.302265 0,1.129308 1.5,2.429763 3.33334,2.8899 C 386.5,78.579278 388,79.43797 388,80.027346 c 0,0.99356 5.88661,2.34942 14.12801,3.254096 3.93292,0.431725 14.1201,-1.615772 15.17252,-3.04949 0.38471,-0.524093 2.3833,-1.693237 4.44132,-2.598097 2.05802,-0.904859 3.3954,-2.205771 2.97196,-2.890913 -0.42345,-0.685143 0.11014,-1.738187 1.18566,-2.340098 2.49016,-1.393562 4.05206,-15.247541 2.82565,-25.063361 -0.79097,-6.330805 -1.75179,-8.154537 -7.36352,-13.976821 -3.54961,-3.682798 -7.06523,-6.695996 -7.81248,-6.695996 -0.74725,0 -2.40864,-1.05 -3.69197,-2.333333 C 407.98105,22.457248 405.17536,22 395.53968,22 387.13756,22 383.38951,22.49816 383,23.666666 c -0.30556,0.916667 -1.48675,1.666667 -2.62488,1.666667 -1.13813,0 -3.37616,1.35 -4.9734,3 -1.59724,1.65 -4.28792,3.9 -5.97929,5 -5.54523,3.606373 -10.75576,8.562526 -10.75576,10.230658 0,0.900259 -0.76264,2.116648 -1.69475,2.703088 -2.39661,1.507839 -4.60284,7.027983 -5.68019,14.212218 -0.50806,3.388077 -1.3728,5.882626 -1.92161,5.543441 -2.63511,-1.628591 -2.76744,29.200766 -0.1344,31.310594 0.4576,0.366667 1.96719,5.316668 3.35465,10.999998 1.38746,5.68334 2.94722,10.33334 3.46614,10.33334 0.51892,0 1.32372,1.90114 1.78845,4.22477 0.75707,3.78534 7.74959,11.77522 10.30533,11.77522 0.55184,0 1.3842,1.2 1.84971,2.66667 0.46551,1.46667 1.70593,2.66667 2.75652,2.66667 1.05057,0 1.91015,0.87889 1.91015,1.95309 0,1.0742 1.31221,2.65536 2.91601,3.51369 1.60381,0.85834 3.55381,2.09056 4.33333,2.7383 6.61326,5.49513 8.02179,6.46158 9.41732,6.46158 0.87559,0 2.99443,1.21634 4.70854,2.70298 1.7141,1.48664 4.46249,3.04078 6.10753,3.45366 1.64504,0.41288 3.31556,1.59654 3.71228,2.63036 0.39671,1.03382 1.64012,1.87967 2.76315,1.87967 1.12301,0 2.04184,0.91485 2.04184,2.033 0,1.11815 1.5,2.60331 3.33333,3.30033 1.83333,0.69703 3.33333,1.81714 3.33333,2.48912 0,0.67199 1.5,1.59827 3.33334,2.0584 1.83333,0.46015 3.33333,1.42519 3.33333,2.14455 0,0.71936 0.89492,1.30793 1.98871,1.30793 1.09378,0 2.7381,1.2 3.65405,2.66667 0.91595,1.46667 2.33401,2.66667 3.15125,2.66667 1.4265,0 8.53932,7.7172 8.53932,9.26489 0,0.41295 1.95,1.60379 4.33334,2.64631 2.38333,1.04253 5.11736,2.989 6.0756,4.32549 0.95825,1.33648 2.60825,2.42997 3.66666,2.42997 1.05843,0 1.92514,0.45 1.92603,1 8.9e-4,0.55 1.51784,2.76304 3.37097,4.91786 1.85315,2.15482 3.71746,5.30482 4.14292,7 0.42547,1.69518 1.26199,3.08214 1.85896,3.08214 0.59696,0 1.77844,2.1 2.62552,4.66667 0.84708,2.56667 1.98248,4.66667 2.52312,4.66667 0.54064,0 1.9844,2.1 3.20836,4.66666 1.22396,2.56667 3.01455,4.66667 3.9791,4.66667 0.96454,0 2.51309,2.1 3.44121,4.66667 0.92812,2.56666 2.20212,4.66666 2.83112,4.66666 0.62899,0 1.87709,2.25 2.77357,5 0.89648,2.75 2.03432,5.3 2.52855,5.66667 1.89847,1.40848 5.38164,12.27129 5.38164,16.78349 0,4.26828 -0.28652,4.6386 -2.93781,3.79712 -1.6158,-0.51284 -3.73508,-1.7297 -4.70954,-2.70414 -0.97444,-0.97444 -4.00242,-2.18183 -6.72885,-2.68308 -2.72643,-0.50126 -5.32409,-1.47587 -5.7726,-2.16582 -0.44849,-0.68993 -5.69849,-1.58913 -11.66667,-1.9982 -7.88345,-0.54034 -10.8512,-1.23864 -10.8512,-2.55322 0,-1.22108 -1.72804,-1.80948 -5.3142,-1.80948 -6.38536,0 -17.64502,-2.75659 -18.97134,-4.64456 -1.35867,-1.93403 -74.15719,-1.84563 -75.43022,0.0916 -0.86281,1.31297 -10.5368,4.53072 -14.61757,4.86208 -0.91667,0.0744 -1.66667,0.95033 -1.66667,1.94645 0,0.99611 -1.8,2.17111 -4,2.61111 -2.2,0.44 -4,1.20446 -4,1.69881 0,0.49435 -2.16084,1.68019 -4.80185,2.63519 -4.71375,1.70452 -11.12552,6.79933 -8.55688,6.79933 0.71936,0 1.6844,1.5 2.14455,3.33333 0.46013,1.83334 1.68442,3.33334 2.72065,3.33334 1.03621,0 2.549,1.45945 3.36175,3.24321 0.81273,1.78377 3.34988,4.00843 5.63808,4.94369 2.2882,0.93527 4.95322,2.47582 5.92228,3.42346 0.96904,0.94764 3.51904,1.72297 5.66666,1.72297 2.14762,0 3.90476,0.47996 3.90476,1.06656 0,1.35545 13.92868,4.26677 20.4136,4.26677 2.70586,0 4.91974,0.50218 4.91974,1.11596 0,1.53711 26.01553,4.22164 40.88889,4.2193 8.59187,-0.001 12.38844,0.49313 12.78181,1.66474 0.43928,1.30832 1.25152,1.32531 3.77778,0.0791 1.77,-0.8732 10.35093,-2.17168 19.06873,-2.88549 8.7178,-0.71383 16.2178,-1.87188 16.66667,-2.57348 0.44886,-0.70159 2.91612,-1.62464 5.48278,-2.05122 10.06031,-1.67204 13.33334,-2.58525 13.33334,-3.72016 0,-0.65009 1.21882,-1.182 2.7085,-1.182 1.4897,0 3.05388,-0.9 3.47599,-2 0.42212,-1.1 1.60328,-2 2.62483,-2 1.02153,0 1.85734,-0.6 1.85734,-1.33333 0,-0.73333 1.5,-1.33333 3.33334,-1.33333 1.83333,0 3.33333,-0.64286 3.33333,-1.42858 0,-2.87881 4.33625,3.00788 5.26945,7.15358 1.40167,6.22673 -0.70814,23.2375 -3.1899,25.71926 C 500.9358,325.92134 500,328.27142 500,330 c 0,1.72857 -0.9,4.04285 -2,5.14285 -1.1,1.1 -2,2.67265 -2,3.49479 0,2.59304 -4.29459,9.95666 -6.86521,11.77129 -1.35747,0.95825 -2.46812,2.3014 -2.46812,2.98476 0,2.29651 -4.56979,6.60631 -7.00484,6.60631 -1.3267,0 -2.77191,1.05 -3.21156,2.33333 C 475.251,365.83396 467.99444,372 465.07396,372 c -1.41057,0 -2.23672,0.53065 -1.83588,1.17921 0.40084,0.64857 -2.10579,1.89297 -5.57027,2.76535 -3.46449,0.87236 -6.6439,2.14406 -7.06536,2.82601 -0.42146,0.68193 -14.57312,1.95261 -31.44813,2.82374 -24.62583,1.27123 -32.57071,1.2463 -40.25141,-0.12626 -5.26327,-0.94066 -9.56958,-2.17343 -9.56958,-2.73955 0,-0.56612 -4.5,-1.75524 -10,-2.64248 -5.5,-0.88725 -10,-2.12189 -10,-2.74366 0,-0.62176 -1.8,-1.52583 -4,-2.00903 -2.2,-0.4832 -4,-1.35289 -4,-1.93265 0,-0.57978 -2.66937,-1.8015 -5.93193,-2.71496 -3.34648,-0.93696 -6.18476,-2.6106 -6.512,-3.83995 -0.31904,-1.19851 -0.64967,0.004 -0.73473,2.67251 -0.14092,4.42029 -0.55811,4.92729 -4.6926,5.70293 -2.49587,0.46823 -4.87703,1.735 -5.29148,2.81505 -0.41447,1.08006 -1.65128,1.96374 -2.7485,1.96374 -2.2052,0 -5.15146,4.49285 -3.81962,5.82469 0.46309,0.46308 2.19197,0.84197 3.84197,0.84197 1.65,0 3.2,0.59412 3.44445,1.32025 0.24444,0.72615 4.19444,1.71163 8.77778,2.18995 5.2063,0.54335 8.33333,1.48167 8.33333,2.50059 0,1.61785 5.54589,2.39317 30,4.19402 5.86667,0.43203 11.43205,1.39894 12.36753,2.14867 2.24536,1.79952 88.33167,1.73597 89.47859,-0.066 0.45131,-0.70908 5.17055,-2.01804 10.48721,-2.9088 6.30743,-1.05675 9.66667,-2.23199 9.66667,-3.38189 0,-1.01114 2.22885,-2.13891 5.22888,-2.64575 2.87589,-0.48588 5.55705,-1.73863 5.95816,-2.78387 0.40109,-1.0453 1.64809,-1.9005 2.77112,-1.9005 1.12301,0 2.04184,-0.77556 2.04184,-1.72347 0,-2.08653 -10.02796,-4.9432 -17.35247,-4.9432 -2.92281,0 -5.3142,-0.6 -5.3142,-1.33333 0,-0.73333 -0.9,-1.33333 -2,-1.33333 -1.14565,0 -2,-1.20138 -2,-2.8124 0,-2.65016 0.56399,-2.78392 9.77654,-2.31871 7.0165,0.35432 10.43112,1.14829 12.09524,2.8124 1.27528,1.27529 3.17584,2.31871 4.22346,2.31871 1.04762,0 1.90476,0.6 1.90476,1.33333 0,0.73333 0.86459,1.33333 1.92131,1.33333 2.79503,0 3.72517,2.20562 2.768,6.5636 -0.48719,2.21816 -1.93257,4.11717 -3.43213,4.50932 -1.42478,0.37259 -2.59051,1.57376 -2.59051,2.66927 0,1.2909 -2.37132,2.5607 -6.73864,3.60841 -3.70624,0.88912 -6.37048,1.98472 -5.92052,2.43468 0.44996,0.44996 -3.2206,1.56351 -8.1568,2.47455 -4.93619,0.91102 -9.34796,2.26005 -9.80392,2.99781 -0.87451,1.41497 -69.81011,2.80616 -91.04679,1.8374 z m 224,-36.1503 c -6.80212,-0.30224 -9,-0.87344 -9,-2.33899 0,-1.06649 -0.6,-1.93908 -1.33333,-1.93908 -0.73333,0 -1.33333,0.9 -1.33333,2 0,1.1 -0.6,2 -1.33334,2 -0.73333,0 -1.18333,-0.75 -1,-1.66667 0.2502,-1.25097 -4.03658,-1.7592 -17.18753,-2.03768 l -17.52087,-0.37102 -0.57698,-3.9313 c -0.31735,-2.16221 -0.23296,-4.43906 0.18753,-5.05965 1.11887,-1.65132 12.09424,-0.25683 12.11827,1.53971 0.0137,1.02748 0.3679,0.97928 1.08324,-0.1474 1.39174,-2.19211 57.9214,-2.58418 58.6472,-0.40676 0.25925,0.77776 1.05677,1.4141 1.77228,1.4141 0.7155,0 0.93009,-0.6 0.47686,-1.33333 C 630.88011,352.6 631.09469,352 631.8102,352 c 0.71551,0 1.60355,0.75 1.97343,1.66666 0.49661,1.23074 0.70004,1.18803 0.77777,-0.16325 0.0769,-1.33709 0.56657,-1.44708 1.81809,-0.40841 1.10088,0.91364 19.5599,1.74061 51.66667,2.31468 30.62171,0.5475 50.27633,1.40565 50.78717,2.21742 0.5347,0.84968 1.16018,0.79542 1.74536,-0.15142 1.40223,-2.26884 20.51078,-1.91003 22.84988,0.42908 2.34758,2.34757 2.50723,7.39368 0.2381,7.52508 -5.85762,0.3392 -150.04116,0.50558 -157.33334,0.18156 z m 166.02708,-18.17547 c -1.61344,-1.67636 -3.33125,-5.53523 -3.81737,-8.57525 -0.48612,-3.04004 -1.40717,-5.52735 -2.04679,-5.52735 -0.6396,0 -1.16292,-1.5 -1.16292,-3.33333 0,-1.83334 -0.49306,-3.33334 -1.09572,-3.33334 -0.60264,0 -1.90957,-3.9 -2.90428,-8.66666 -0.9947,-4.76667 -2.20554,-8.66667 -2.69074,-8.66667 -0.4852,0 -1.63276,-4.2 -2.55014,-9.33333 -0.91738,-5.13334 -2.20638,-9.33334 -2.86445,-9.33334 -0.65807,0 -1.58671,-2.44026 -2.06363,-5.42281 -0.47693,-2.98255 -1.6313,-6.18697 -2.56526,-7.12093 -0.93398,-0.93398 -2.47164,-4.34371 -3.41704,-7.57719 -0.9454,-3.23349 -2.05306,-6.17907 -2.46144,-6.54573 -0.4084,-0.36667 -1.88828,-3.96667 -3.28862,-8 -1.40033,-4.03334 -2.8954,-7.63334 -3.32237,-8 C 734.5376,246.64998 732,241.30969 732,239.35142 c 0,-1.10994 -0.50396,-2.01809 -1.11992,-2.01809 -0.61596,0 -1.91199,-2.4 -2.88008,-5.33333 -0.96809,-2.93334 -2.19415,-5.33334 -2.72457,-5.33334 -0.53043,0 -1.40368,-1.35 -1.94056,-3 -0.53688,-1.65 -1.09074,-3.3 -1.23078,-3.66666 -0.14005,-0.36667 -0.71844,-2.61667 -1.2853,-5 -0.56687,-2.38334 -1.5102,-4.33334 -2.0963,-4.33334 -0.5861,0 -1.85437,-1.95 -2.81837,-4.33333 -0.964,-2.38333 -2.12085,-4.63333 -2.57079,-5 -0.44993,-0.36667 -1.60678,-2.61667 -2.57078,-5 C 709.79855,193.95 708.1826,192 707.17157,192 c -1.01102,0 -1.83824,-1.16598 -1.83824,-2.59107 0,-1.42508 -1.15765,-3.40191 -2.57257,-4.39295 -1.41491,-0.99105 -2.98341,-3.43886 -3.48557,-5.43961 -0.50215,-2.00075 -2.6445,-5.27196 -4.76076,-7.26939 -2.11627,-1.99741 -3.84776,-4.46865 -3.84776,-5.49164 0,-1.02298 -1.65,-3.44734 -3.66667,-5.38746 -2.01667,-1.94011 -4.86667,-5.90507 -6.33333,-8.81102 -1.46667,-2.90594 -3.71667,-6.06756 -5,-7.0258 -1.28334,-0.95825 -2.33334,-2.33357 -2.33334,-3.05628 0,-0.7227 -0.75,-2.22778 -1.66666,-3.34464 -2.8441,-3.46518 -13.52442,-15.40457 -16.43268,-18.36988 -1.52131,-1.55114 -3.15248,-3.87026 -3.62483,-5.15359 -0.47233,-1.28334 -1.75652,-2.33334 -2.85373,-2.33334 -1.09722,0 -2.63716,-1.2 -3.4221,-2.66666 -0.78493,-1.46667 -2.15604,-2.66968 -3.0469,-2.67337 -0.89087,-0.004 -3.65438,-2.40368 -6.14112,-5.33333 -2.48676,-2.929651 -5.27256,-5.326638 -6.19068,-5.326638 -0.91814,0 -2.01468,-0.9 -2.4368,-2 -0.42211,-1.1 -1.7863,-2 -3.03154,-2 -1.24524,0 -1.87498,-0.389087 -1.39942,-0.864639 0.82594,-0.825948 -0.51034,-2.193601 -7.35288,-7.52551 -1.68703,-1.314583 -4.86732,-3.863849 -7.06732,-5.665039 -2.2,-1.801188 -4.75,-3.275621 -5.66667,-3.276517 -0.91667,-8.95e-4 -1.66667,-0.553955 -1.66667,-1.229021 0,-0.675066 -1.91601,-1.648219 -4.2578,-2.162563 -2.34178,-0.514344 -5.08465,-1.762016 -6.09524,-2.772607 -1.01058,-1.01059 -2.69457,-1.837437 -3.7422,-1.837437 -1.04761,0 -1.90476,-0.6 -1.90476,-1.333333 0,-0.733334 -0.9,-1.333334 -2,-1.333334 -1.1,0 -2,-0.522024 -2,-1.160052 0,-0.638028 -2.7,-1.916005 -6,-2.839947 -3.3,-0.923943 -6,-2.20192 -6,-2.839948 0,-0.638028 -0.95932,-1.160052 -2.13182,-1.160052 -1.17251,0 -4.02251,-0.8603 -6.33334,-1.911778 -2.31082,-1.051477 -6.9015,-2.822834 -10.2015,-3.93635 -3.3,-1.113516 -5.4,-2.093355 -4.66667,-2.177418 2.81471,-0.322656 -10.88848,-3.935009 -15,-3.954213 -2.95397,-0.0138 -4.33333,-0.656872 -4.33333,-2.020241 0,-1.337935 -1.33799,-2 -4.04184,-2 -4.18127,0 -6.70923,-3.115602 -4.40091,-5.423916 1.47597,-1.47598 21.8994,0.82018 23.03043,2.58926 0.4101,0.641466 2.77553,1.606901 5.2565,2.14541 2.9653,0.643632 3.93147,1.337188 2.81987,2.024194 -1.25179,0.773644 -0.97435,1.428621 1.06816,2.521736 1.51753,0.812157 3.65573,1.476649 4.75156,1.476649 1.09583,0 2.78528,0.791645 3.75432,1.759211 0.96905,0.967566 4.68073,2.493536 8.24819,3.391044 3.56745,0.897508 7.36032,2.505862 8.42857,3.574122 1.06825,1.068259 3.04943,1.94229 4.40261,1.94229 1.35318,0 2.66031,0.565844 2.90476,1.25743 0.24444,0.691588 3.44444,2.029868 7.11111,2.973956 3.66667,0.94409 7.63704,2.778244 8.82307,4.075903 1.18601,1.297657 2.7442,2.359377 3.46265,2.359377 0.71844,0 2.54209,1.05 4.05257,2.333333 1.51048,1.283334 4.08534,3.233334 5.72192,4.333334 1.63659,1.1 4.82627,3.65 7.08818,5.666666 2.26192,2.016667 4.81466,3.666667 5.67277,3.666667 0.85811,0 1.90556,0.9 2.32768,2 0.42211,1.1 1.68629,2 2.80932,2 1.12301,0 2.04184,0.566609 2.04184,1.259132 0,0.692522 2.09713,3.542522 4.66029,6.333333 2.56316,2.790811 4.66316,5.524206 4.66667,6.074206 0.004,0.55 0.9252,1 2.04821,1 1.12303,0 2.348,0.79781 2.72219,1.77292 0.37419,0.9751 2.72815,2.57641 5.23103,3.55847 2.50289,0.98205 4.2611,2.25414 3.90714,2.82685 -0.35396,0.57271 0.57326,1.69251 2.06046,2.48844 1.48721,0.79592 2.70401,2.32603 2.70401,3.40023 0,1.0742 0.6,1.95309 1.33333,1.95309 0.73334,0 1.33334,0.62833 1.33334,1.3963 0,0.76796 2.55,4.0132 5.66666,7.21163 8.0958,8.3082 9.78494,10.50005 12.49835,16.21814 1.32727,2.79702 3.22681,6.00539 4.2212,7.12971 5.159,5.83307 8.27737,10.21033 8.27883,11.62103 8.9e-4,0.86725 1.24501,1.97145 2.76472,2.45378 1.63084,0.51762 2.47328,1.63222 2.05585,2.72004 -0.38899,1.01368 0.3478,2.60947 1.63731,3.5462 1.28949,0.93675 3.13716,3.65316 4.1059,6.0365 0.96875,2.38333 2.51578,4.33333 3.43784,4.33333 0.92207,0 2.42207,1.8 3.33334,4 0.91126,2.2 2.05306,4 2.53734,4 0.48427,0 1.6777,2.7 2.65207,6 0.97437,3.3 2.16383,6 2.64323,6 0.96306,0 5.50069,9.90657 5.50069,12.00915 0,0.7283 0.55233,1.32418 1.22739,1.32418 0.67506,0 1.6241,1.80618 2.10896,4.01372 0.48485,2.20754 1.78738,4.91954 2.89449,6.02664 1.10712,1.10712 2.16747,2.75095 2.35633,3.65296 0.5271,2.51742 2.45639,6.89544 3.36678,7.64002 0.44832,0.36666 1.96633,4.11666 3.37337,8.33333 1.40703,4.21667 2.96276,7.66667 3.45717,7.66667 0.49442,0 1.5788,2.7 2.40975,6 0.83096,3.3 1.98875,6 2.57289,6 0.58414,0 1.83095,3 2.77068,6.66666 0.93975,3.66667 2.13975,6.66667 2.66667,6.66667 0.52693,0 1.72693,3 2.66667,6.66667 0.93974,3.66666 2.19896,6.66666 2.79826,6.66666 0.59931,0 1.79807,4.2 2.66392,9.33334 0.86586,5.13333 2.12006,9.33333 2.78714,9.33333 0.66708,0 1.21286,0.9 1.21286,2 0,1.1 0.52707,2 1.17126,2 0.64418,0 1.85894,4.62371 2.69945,10.27491 0.84051,5.6512 2.02633,10.6012 2.63516,11 1.21913,0.79857 4.76401,14.56632 3.95801,15.37232 -0.2768,0.27681 -1.82337,-0.86827 -3.4368,-2.54463 z M 32.445689,325.08936 c 0.469219,-8.20086 1.407756,-15.25343 2.085638,-15.67239 0.677881,-0.41895 1.938784,-4.65659 2.802006,-9.41697 0.863223,-4.76039 1.9863,-8.95782 2.495728,-9.32763 0.50943,-0.3698 1.697095,-4.50603 2.639256,-9.19161 0.942163,-4.68559 2.489098,-9.29532 3.437634,-10.24386 0.948536,-0.94853 2.108016,-4.1223 2.576624,-7.05281 0.468608,-2.93052 1.748456,-6.22465 2.844108,-7.32029 1.09565,-1.09566 2.234194,-3.08823 2.530098,-4.42795 C 55.022563,247.15772 56.362885,244 57.437449,244 c 0.619539,0 1.772687,-2.4 2.562551,-5.33334 0.789864,-2.93333 1.897523,-5.33333 2.461461,-5.33333 0.56394,0 2.084222,-2.4 3.378406,-5.33333 1.294184,-2.93334 2.909652,-5.33334 3.58993,-5.33334 0.680279,0 1.23687,-0.78686 1.23687,-1.74858 0,-0.96172 1.05,-2.91172 2.333333,-4.33334 1.283333,-1.42161 3.184721,-4.23474 4.225307,-6.25141 1.040585,-2.01667 2.471782,-3.66667 3.180438,-3.66667 1.525742,0 7.594255,-6.31717 7.594255,-7.90544 0,-0.60576 0.9,-1.8483 2,-2.76122 1.1,-0.91292 2,-2.78639 2,-4.16326 0,-1.37688 0.498612,-2.50341 1.108027,-2.50341 0.609414,0 1.959414,-1.5974 3,-3.54979 1.040585,-1.95238 5.041973,-6.77922 8.891973,-10.72629 3.85,-3.94708 7,-7.63641 7,-8.19852 0,-0.56212 5.01073,-6.16995 11.13497,-12.46185 6.12423,-6.29191 11.51062,-12.41878 11.96975,-13.61527 0.45913,-1.19648 1.8984,-2.56657 3.19837,-3.04464 1.29996,-0.47807 2.84339,-1.66445 3.42983,-2.63643 0.58644,-0.97196 1.79211,-1.76721 2.67927,-1.76721 0.88716,0 2.36244,-1.2 3.27838,-2.66667 C 148.60652,129.2 150.10652,128 151.02391,128 c 0.91738,0 2.41738,-1.2 3.33333,-2.66667 0.91595,-1.46666 2.26027,-2.66666 2.98739,-2.66666 1.63573,0 6.65537,-4.90616 6.65537,-6.50491 0,-0.64437 1.75689,-1.8993 3.90419,-2.78874 2.1473,-0.88945 4.24308,-2.50027 4.65725,-3.57961 0.41419,-1.07934 1.33767,-1.60112 2.0522,-1.15952 0.71453,0.44161 2.06309,-0.42036 2.99681,-1.91549 0.93372,-1.49512 2.32,-2.7184 3.08063,-2.7184 0.76061,0 2.33056,-1.05 3.48877,-2.33333 3.70226,-4.102243 7.7911,-7.000005 9.87724,-7.000005 1.11463,0 2.37196,-0.9 2.79407,-2 0.42212,-1.1 1.53909,-2 2.48217,-2 0.94308,0 2.06006,-0.9 2.48218,-2 0.4221,-1.099999 1.68629,-1.999999 2.80932,-1.999999 1.12301,0 2.04184,-0.533775 2.04184,-1.186166 0,-0.652389 2.7,-1.983378 6,-2.957753 3.3,-0.974373 6,-2.144564 6,-2.600423 0,-0.455858 2.4,-1.620905 5.33333,-2.588992 2.93333,-0.968086 5.33333,-2.264122 5.33333,-2.88008 0,-0.615956 1.21883,-1.11992 2.70851,-1.11992 1.48969,0 3.03311,-0.845852 3.42981,-1.87967 0.39672,-1.033818 2.17788,-2.24525 3.95816,-2.69207 1.78027,-0.446818 3.23686,-1.400968 3.23686,-2.120329 0,-0.719361 1.2,-1.307931 2.66666,-1.307931 1.46667,0 2.66667,-0.6 2.66667,-1.333333 0,-0.733333 1.99993,-1.333333 4.44429,-1.333333 6.5783,0 20.07271,-2.897427 21.22238,-4.556723 0.6814,-0.983448 1.39677,-0.826357 2.24536,0.493062 1.61174,2.50603 0.59316,4.063661 -2.65739,4.063661 -1.42339,0 -2.58797,0.6 -2.58797,1.333333 0,0.733333 -0.9,1.333333 -2,1.333333 -1.1,0 -2,0.570207 -2,1.267126 0,0.696917 -3.6,1.674417 -8,2.172221 -4.4,0.497803 -8,1.400409 -8,2.005791 0,0.605382 -2.1,1.494657 -4.66667,1.976166 -2.56667,0.48151 -4.66667,1.408698 -4.66667,2.060418 0,0.65172 -1.16458,1.184945 -2.58797,1.184945 -1.42339,0 -2.9588,0.6 -3.41203,1.333333 -0.45322,0.733334 -2.02404,1.333334 -3.4907,1.333334 -1.46667,0 -2.31316,0.571998 -1.88108,1.271108 0.43206,0.699109 -1.63252,1.922236 -4.58799,2.718058 C 222.41811,83.451655 220,84.679656 220,85.384724 c 0,0.705068 -1.15715,1.281942 -2.57143,1.281942 -1.41429,0 -3.47142,0.9 -4.57142,1.999999 -1.1,1.1 -2.64287,2 -3.42858,2 -0.78572,0 -1.42857,0.58857 -1.42857,1.307931 0,0.719361 -1.45659,1.673511 -3.23685,2.120329 -1.78028,0.44682 -3.54875,1.625148 -3.92994,2.618507 -0.38118,0.993359 -2.72346,2.187013 -5.20508,2.652565 -3.02084,0.566714 -5.25633,2.106493 -6.7642,4.659093 -1.23869,2.09695 -3.43981,4.18958 -4.89138,4.65029 -1.45158,0.46071 -2.63922,1.32443 -2.63922,1.91937 0,0.59495 -1.8,1.82731 -4,2.73858 -2.2,0.91127 -4,2.35072 -4,3.19877 0,1.83004 -3.30472,4.7422 -8.35198,7.35987 -2.00642,1.04059 -3.64802,2.31779 -3.64802,2.83824 0,0.52045 -1.8,1.69185 -4,2.60312 -2.2,0.91127 -4,2.18406 -4,2.82843 0,0.64436 -0.9,1.17157 -2,1.17157 -1.1,0 -2,0.67963 -2,1.51027 0,0.83065 -1.09164,2.48065 -2.42588,3.66666 -1.33424,1.18603 -2.8154,3.2064 -3.29149,4.48974 -0.47608,1.28333 -1.93443,2.33634 -3.24079,2.34002 -1.30634,0.004 -4.47517,2.49367 -7.04184,5.53331 -2.56666,3.03963 -6.91666,7.74303 -9.66666,10.45197 -2.75,2.70896 -5,5.33692 -5,5.83994 0,0.503 -3,3.99445 -6.66667,7.75877 -3.66667,3.76433 -6.66667,7.34639 -6.66667,7.96011 0,0.61373 -1.05,2.27288 -2.33333,3.68697 -4.302955,4.74143 -5.669289,6.64252 -7.219768,10.04545 C 94.932349,198.47744 93.750344,200 93.153553,200 c -0.59679,0 -2.089829,1.95 -3.317865,4.33333 -1.228035,2.38333 -3.343443,5.11736 -4.700907,6.0756 -1.357462,0.95825 -2.468114,2.90825 -2.468114,4.33333 0,1.4251 -0.681198,2.59107 -1.513772,2.59107 -1.979911,0 -6.631346,5.11819 -9.152895,10.07133 -1.1,2.16078 -2.683795,4.52867 -3.519545,5.262 C 67.644705,233.4 66.248175,236.25 65.377052,239 c -0.871121,2.75 -2.006337,5 -2.522701,5 -0.516364,0 -1.736059,2.7 -2.710432,6 -0.974375,3.3 -2.196902,6 -2.716727,6 -0.519825,0 -1.760251,2.99334 -2.7565,6.65188 -0.996251,3.65854 -2.122011,6.34124 -2.501689,5.96157 -0.721982,-0.72199 -3.572912,8.71252 -5.052434,16.71988 -0.474244,2.56667 -1.380474,5.00887 -2.013848,5.42712 -0.633372,0.41825 -1.8047,4.46825 -2.602952,9 C 41.701517,304.2922 40.601071,308 40.054333,308 c -0.546737,0 -1.403896,5.83028 -1.904797,12.95618 C 37.031824,336.85694 36.289493,340 33.651737,340 c -1.784778,0 -1.94549,-1.98692 -1.206048,-14.91064 z M 154.66667,312.17041 c 0,-0.63961 -2.32891,-1.53533 -5.17534,-1.99049 -3.7235,-0.59542 -5.37893,-1.60608 -5.90105,-3.6027 -0.39915,-1.52632 -1.91025,-3.08489 -3.35803,-3.46349 -4.68949,-1.22633 -5.53936,-20.44707 -0.90409,-20.44707 0.98063,0 2.02444,-0.72446 2.31959,-1.60992 0.35541,-1.06621 1.60658,-0.61313 3.70464,1.34151 2.46154,2.29327 3.09802,4.13728 2.85422,8.26916 -0.26189,4.43856 0.38868,6.00437 3.93502,9.47104 3.98157,3.89211 4.67656,4.09656 11.05081,3.25099 3.74112,-0.49628 7.24473,-1.69338 7.7858,-2.66023 0.54108,-0.96684 2.99844,-3.77644 5.4608,-6.24356 6.17081,-6.18269 8.19303,-12.73328 6.09384,-19.73976 -0.89191,-2.97691 -2.15788,-5.41256 -2.81329,-5.41256 -0.6554,0 -1.81912,-1.8 -2.58604,-4 -0.76694,-2.2 -2.09139,-4 -2.94326,-4 -0.85185,0 -2.29825,-1.2 -3.2142,-2.66667 C 170.06015,257.2 168.41583,256 167.32204,256 c -1.09379,0 -1.98871,-0.6 -1.98871,-1.33334 0,-1.48301 -13.693,-1.86256 -15.136,-0.41954 -1.30177,1.30176 -10.4449,4.37561 -13.08622,4.39946 -1.22222,0.0107 -2.42988,0.64306 -2.68368,1.40447 -0.77364,2.32091 -18.88275,3.27683 -21.21744,1.12 -1.0941,-1.01075 -3.16394,-2.49824 -4.59963,-3.30553 -1.4357,-0.80731 -2.80021,-3.05731 -3.03226,-5 -0.23204,-1.94271 -0.98204,-3.53219 -1.66666,-3.53219 -0.68463,0 -1.24477,-4.47273 -1.24477,-9.9394 0,-8.71397 0.39455,-10.33393 3.2002,-13.13959 1.76011,-1.7601 4.16011,-3.56854 5.33333,-4.01876 1.17322,-0.45021 2.13313,-1.43738 2.13313,-2.19374 0,-0.79188 3.39327,-1.37518 8,-1.37518 4.4,0 8,0.55958 8,1.24348 0,0.68392 1.16232,1.61239 2.58292,2.06327 1.4206,0.45089 3.35122,2.55549 4.29024,4.67692 0.93903,2.12141 2.7379,4.12661 3.99747,4.456 3.59448,0.93997 1.59117,6.227 -2.35947,6.227 -1.7478,0 -3.17782,-0.63541 -3.17782,-1.41203 0,-0.77661 -0.69271,-0.9839 -1.53935,-0.46065 -0.84664,0.52325 -1.20375,0.40837 -0.79358,-0.25531 0.41017,-0.66366 -0.67839,-2.99273 -2.41903,-5.1757 -2.56384,-3.21536 -4.17855,-3.96904 -8.50339,-3.96904 -6.94538,0 -8.39134,1.65785 -9.12109,10.45764 -0.64349,7.75966 1.72264,15.48176 4.74376,15.48176 0.94401,0 2.06173,0.9 2.48384,2 0.86199,2.2463 9.8155,2.85442 9.8155,0.66666 0,-0.73333 1.17019,-1.33333 2.60042,-1.33333 1.43022,0 3.08022,-0.80103 3.66666,-1.78005 1.35652,-2.26464 14.53408,-4.88662 24.55923,-4.88662 7.91315,0 14.35209,1.97131 16.23995,4.97192 0.58644,0.93211 1.93644,1.69475 3,1.69475 1.06356,0 1.93374,0.85957 1.93374,1.91015 0,1.05058 1.14391,2.27321 2.54202,2.71696 2.63444,0.83613 6.79132,9.44608 6.79132,14.06654 0,1.45183 0.6,2.63968 1.33333,2.63968 1.53165,0 1.84665,11.54964 0.33333,12.22223 -0.55,0.24444 -2.2,2.81627 -3.66666,5.71516 -3.41407,6.74799 -7.15667,10.76037 -11.23084,12.04043 -1.77695,0.55829 -4.4401,2.14168 -5.91808,3.51864 -1.47799,1.37694 -3.47411,2.50354 -4.43583,2.50354 -0.96172,0 -1.74859,0.6 -1.74859,1.33334 0,0.73333 -2.4,1.33333 -5.33333,1.33333 -2.93333,0 -5.33333,-0.52332 -5.33333,-1.16292 z m 445.72792,-31.0634 c 0.41013,-3.0578 1.66501,-6.07411 2.78861,-6.70291 1.12359,-0.6288 2.4338,-3.22696 2.91157,-5.77369 0.47778,-2.54672 1.37782,-4.63041 2.0001,-4.63041 0.62228,0 1.85048,-2.4 2.72933,-5.33334 0.87884,-2.93333 2.11264,-5.33333 2.74176,-5.33333 0.62912,0 2.16935,-2.15048 3.42273,-4.77885 2.15306,-4.51502 2.15187,-4.84995 -0.0216,-6.06626 -1.26522,-0.70806 -2.30042,-1.83456 -2.30042,-2.5033 0,-0.66875 -2.67806,-3.97142 -5.95124,-7.33927 -5.91956,-6.09079 -5.96371,-6.1088 -8.29632,-3.38452 C 599.12931,230.7675 597.39499,232 596.56504,232 594.77101,232 588,238.05384 588,239.65786 c 0,0.61519 -2.33455,3.26502 -5.18789,5.8885 -2.85334,2.62349 -5.59376,6.0488 -6.08984,7.61181 -1.29458,4.0788 -5.7981,3.6654 -6.87648,-0.63124 -0.71567,-2.85145 -0.064,-4.16343 3.64126,-7.3302 2.48212,-2.12143 4.96295,-3.85855 5.51295,-3.86027 0.55,-10e-4 1,-0.77813 1,-1.72534 C 580,237.54408 588.76537,228 590.66375,228 591.39869,228 592,227.4 592,226.66666 c 0,-0.73333 1.2,-1.33333 2.66667,-1.33333 1.48148,0 2.66666,-0.88889 2.66666,-2 0,-1.1 -0.6,-2 -1.33333,-2 -0.73333,0 -1.33333,-2.1 -1.33333,-4.66667 0,-2.56666 -0.6,-4.66666 -1.33334,-4.66666 -2.18396,0 -1.51101,-4.97986 0.7924,-5.86375 2.45068,-0.94041 9.81258,6.1942 9.97954,9.67143 0.0664,1.38349 0.35337,1.57742 0.77777,0.52565 0.36988,-0.91667 1.24784,-1.66667 1.95101,-1.66667 1.36216,0 2.28767,-0.65998 8.36064,-5.9621 2.12376,-1.85418 4.67376,-3.37123 5.66667,-3.37123 0.99292,0 1.80531,-0.50396 1.80531,-1.11992 0,-0.61596 2.4,-1.91199 5.33333,-2.88008 2.93333,-0.96809 5.33333,-2.26412 5.33333,-2.88008 0,-2.26653 3.97511,-1.02361 7.27274,2.27401 2.98566,2.98568 3.39393,4.50939 3.39393,12.66667 0,5.29293 -0.57225,9.27273 -1.33333,9.27273 -0.73334,0 -1.33334,0.65932 -1.33334,1.46516 0,2.30231 -4.37286,11.05908 -6.2595,12.53484 -0.93752,0.73334 -2.08511,3.27064 -2.55023,5.63846 -0.7554,3.84566 -0.44005,4.4593 2.95491,5.75008 4.55378,1.73134 5.74984,3.3916 4.86922,6.75906 -0.85593,3.27311 -4.47746,3.20907 -8.34773,-0.1476 C 630.30892,253.2 628.08171,252 627.05063,252 c -1.07752,0 -1.47014,-0.65458 -0.92331,-1.53935 0.58113,-0.94029 0.36663,-1.17795 -0.55123,-0.61069 -0.82642,0.51076 -2.2141,3.30346 -3.08372,6.20601 -0.86962,2.90255 -2.05512,5.27736 -2.63444,5.27736 -0.5793,0 -2.0634,3.6 -3.29798,8 -1.23458,4.4 -2.72519,8 -3.31247,8 -0.58728,0 -1.44864,1.2 -1.91415,2.66667 -0.46789,1.47418 -2.01737,2.66666 -3.46502,2.66666 -1.44027,0 -2.96403,0.9 -3.38614,2 -0.42212,1.1 -1.68228,2 -2.80038,2 -1.61586,0 -1.87992,-1.14057 -1.2872,-5.55965 z m 27.83294,-49.90087 c 0.90283,-2.4967 2.00899,-4.53948 2.45812,-4.53948 0.44915,0 1.6406,-2.1 2.64768,-4.66666 1.00708,-2.56667 2.24912,-4.66667 2.7601,-4.66667 0.51097,0 1.2302,-1.57543 1.59828,-3.50095 0.66708,-3.4896 0.64708,-3.49833 -6.16979,-2.69097 -3.76148,0.44549 -7.04269,1.42092 -7.2916,2.16761 -0.24889,0.74671 -1.60255,1.35764 -3.00809,1.35764 -1.40556,0 -2.55556,0.58858 -2.55556,1.30794 0,0.71936 -1.4785,1.67901 -3.28556,2.13254 -4.1543,1.04267 -5.86286,5.75556 -2.87784,7.93826 1.18986,0.87005 2.1634,2.26577 2.1634,3.10158 0,0.83583 0.53702,1.51968 1.19338,1.51968 0.65636,0 2.57511,1.4356 4.26388,3.19023 3.7949,3.94289 5.97748,3.22896 8.1036,-2.65075 z m -427.30964,25.23252 c -3.48449,-0.9605 -18.25122,-15.76662 -18.25122,-18.2999 0,-1.17632 -0.9,-2.13876 -2,-2.13876 -1.1,0 -2,-0.7728 -2,-1.71734 0,-0.94452 -2.85,-4.78717 -6.33334,-8.53921 -11.26768,-12.13688 -14.17048,-16.72225 -12.97353,-20.49352 0.8154,-2.56908 4.6402,-3.69253 4.6402,-1.36296 0,0.67117 1.8,2.91923 4,4.99568 2.2,2.07644 4,4.59273 4,5.59176 0,1.90188 1.16656,3.285 13.66667,16.20383 4.21666,4.3579 7.66666,8.49041 7.66666,9.18334 0,2.40371 15.45247,4.07254 21,2.26794 1.65,-0.53674 3.00074,-1.68546 3.00163,-2.55271 8.9e-4,-0.86724 1.50089,-3.32013 3.33333,-5.45087 3.92956,-4.56922 4.78016,-14.98714 1.33171,-16.31044 -1.1,-0.42212 -2,-1.75522 -2,-2.96249 0,-1.20725 -1.8,-3.89392 -4,-5.97036 -2.2,-2.07645 -4,-4.40853 -4,-5.18241 0,-2.33599 -15.63725,-16.69092 -19.62047,-18.0115 -2.38373,-0.7903 -3.87437,-2.336 -4.16401,-4.31788 -0.42639,-2.91752 -0.13372,-3.04442 5.33333,-2.31254 3.76087,0.50348 6.42443,1.73654 7.61378,3.5247 1.00612,1.51267 2.57206,2.75031 3.4799,2.75031 0.90783,0 2.78466,1.60799 4.17071,3.57329 1.38605,1.96532 5.22009,6.39063 8.52009,9.83402 9.8168,10.24336 10.67079,11.67354 11.7254,19.63666 1.94964,14.7212 0.31311,21.44216 -7.0712,29.04004 -3.16232,3.25379 -6.3532,5.91599 -7.09082,5.91599 -0.73764,0 -1.54115,0.54987 -1.7856,1.22192 -0.54682,1.50337 -8.89431,2.79276 -12.19322,1.88341 z M 553.5888,229.55489 c -3.643,-3.15956 -3.75543,-6.44405 -0.25856,-7.55391 1.46496,-0.46496 3.00107,-2.1901 3.41357,-3.83364 0.4125,-1.64354 2.2139,-4.0876 4.0031,-5.43124 1.7892,-1.34362 3.25309,-3.11308 3.25309,-3.9321 0,-0.81903 2.1,-3.41644 4.66667,-5.77204 5.69141,-5.2234 5.81854,-6.56708 0.7271,-7.68535 -2.16676,-0.47591 -4.28246,-1.94568 -4.70157,-3.26617 -0.41911,-1.3205 -4.05569,-5.8563 -8.08129,-10.07954 l -7.31927,-7.67864 -2.97916,3.24354 c -1.63853,1.78394 -3.87915,4.98752 -4.97915,7.11905 -2.60184,5.04172 -9.54576,12.64848 -11.54632,12.64848 -0.86064,0 -1.76478,0.58641 -2.00924,1.30315 -0.24444,0.71672 -2.3852,1.68986 -4.75724,2.16256 -5.53482,1.10293 -7.38372,-2.35362 -3.296,-6.16191 1.50359,-1.40081 3.14491,-3.8422 3.64736,-5.42531 0.50247,-1.58312 4.49115,-6.43382 8.86376,-10.77934 8.73523,-8.68115 11.74752,-14.57295 9.08866,-17.7767 -0.89246,-1.07533 -1.29263,-2.81516 -0.88928,-3.86626 0.8503,-2.21586 5.17284,-1.96591 5.94269,0.34364 0.94735,2.84205 12.28895,-10.55066 12.28895,-14.51138 0,-0.77792 2.69793,-4.15104 5.99541,-7.49584 7.64967,-7.75943 10.66479,-7.23966 9.66105,1.66546 -0.46744,4.14708 -1.5804,6.70454 -3.50408,8.05193 -1.55048,1.086 -2.81905,2.62556 -2.81905,3.42125 0,0.7957 -1.65,3.05771 -3.66667,5.0267 -9.97432,9.73852 -10.42221,17.45984 -1.53854,26.52254 2.97577,3.03572 5.93702,5.51951 6.58057,5.51951 0.64356,0 2.57196,1.40187 4.28536,3.11527 3.36691,3.3669 4.47785,2.90453 7.68689,-3.19926 0.93959,-1.78713 2.52076,-3.72916 3.5137,-4.3156 0.99294,-0.58644 1.80536,-1.80309 1.80536,-2.70368 0,-0.90058 1.05,-2.62854 2.33333,-3.83992 3.5708,-3.37056 5.66667,-6.14884 5.66667,-7.51169 0,-1.4378 4.82644,-2.94091 5.9228,-1.84455 1.63254,1.63255 0.671,9.37542 -1.25614,10.11494 -1.1,0.4221 -2,1.78629 -2,3.03153 0,1.24524 -0.37142,1.89264 -0.8254,1.43868 -1.26033,-1.26035 -4.27037,2.30351 -5.25332,6.21988 -0.48237,1.92192 -1.3392,3.4944 -1.90406,3.4944 -0.56487,0 -1.77262,1.8 -2.68388,4 -0.91127,2.2 -2.18407,4 -2.82843,4 -0.64436,0 -1.17157,0.85957 -1.17157,1.91015 0,1.05058 -1.05,2.25068 -2.33334,2.66689 -1.28333,0.4162 -3.5178,3.45663 -4.96549,6.75651 -1.44769,3.29988 -3.03899,5.99978 -3.53623,5.99978 -0.49724,0 -1.53156,1.8 -2.29849,4 -0.76692,2.2 -1.97793,4 -2.69116,4 -0.71321,0 -1.69209,1.8 -2.17529,4 -0.4832,2.2 -1.6818,4 -2.66356,4 -0.98175,0 -2.61912,0.32008 -3.6386,0.7113 -1.01947,0.3912 -3.16855,-0.42918 -4.77571,-1.82307 z M 249,212.14224 c -1.28333,-1.30127 -2.34369,-2.91562 -2.35637,-3.58743 -0.0133,-0.67181 -1.51267,-2.63445 -3.33334,-4.36143 C 241.48964,202.46641 240,200.28061 240,199.33604 c 0,-0.94458 -0.9,-2.06276 -2,-2.48488 -1.1,-0.42211 -2,-1.64344 -2,-2.71408 0,-1.07063 -0.77276,-2.73947 -1.71725,-3.70851 -0.9445,-0.96905 -2.77264,-4.01191 -4.06256,-6.76191 -1.28991,-2.75 -2.90572,-5 -3.59068,-5 -0.68495,0 -1.62582,-1.51582 -2.09082,-3.3685 -0.46498,-1.85268 -1.97641,-3.97379 -3.35873,-4.71358 -1.38231,-0.73978 -2.51329,-2.05486 -2.51329,-2.92238 0,-1.95648 -6.49239,-7.6622 -8.71862,-7.6622 -2.58264,0 -3.2228,-6.53478 -0.8706,-8.88698 1.64226,-1.64225 3.73818,-1.88101 10.14727,-1.1559 4.44264,0.50262 8.39248,1.42349 8.77744,2.04637 0.38495,0.62287 3.69195,1.87415 7.34888,2.78063 3.65693,0.90646 6.97483,2.13542 7.37311,2.73102 0.39829,0.5956 5.19829,1.71568 10.66666,2.48908 5.46839,0.77339 10.14252,1.98883 10.38696,2.70098 0.24446,0.71213 2.15904,1.2948 4.25466,1.2948 2.0956,0 4.18706,0.60978 4.64768,1.35508 0.46061,0.74529 1.37342,1.02386 2.02845,0.61902 1.22536,-0.7573 -2.41291,-5.68033 -7.70856,-10.43061 -1.65,-1.48008 -3,-3.48285 -3,-4.45061 0,-0.96775 -0.48801,-1.75955 -1.08447,-1.75955 -0.59646,0 -1.90845,-2.1 -2.91553,-4.66667 C 258.99292,142.1 257.71977,140 257.17077,140 c -0.54898,0 -1.75664,-2.09755 -2.68368,-4.6612 -0.92702,-2.56366 -2.76586,-5.0041 -4.0863,-5.42319 C 249.08036,129.49652 248,128.32809 248,127.31909 c 0,-1.009 -1.11227,-2.61857 -2.47171,-3.57682 -2.65765,-1.87335 -4.51946,-10.051 -2.56353,-11.25983 2.46053,-1.5207 7.70191,0.8904 7.70191,3.54296 0,1.4527 0.53496,2.64127 1.18878,2.64127 0.65384,0 1.529,1.35 1.9448,3 0.7555,2.9979 3.4983,7.12692 7.8325,11.79105 1.26468,1.36094 2.71698,4.13817 3.22734,6.17161 0.51036,2.03343 2.62563,5.39485 4.70059,7.46981 2.07496,2.07496 3.77265,4.6265 3.77265,5.67008 0,1.0436 0.56963,1.89744 1.26584,1.89744 1.8217,0 12.84811,10.89936 13.82596,13.66667 0.45348,1.28333 1.44334,2.33333 2.1997,2.33333 0.75634,0 1.37517,2.03496 1.37517,4.52212 0,3.61295 -0.61948,4.6776 -3.08124,5.29547 C 285.27187,181.39956 276,179.09316 276,177.27066 276,176.5718 275.14285,176 274.09524,176 c -1.04763,0 -2.79104,-0.88628 -3.87427,-1.96951 -1.08322,-1.08321 -5.92608,-2.72005 -10.7619,-3.6374 -4.83582,-0.91735 -8.7924,-2.36429 -8.7924,-3.21544 0,-0.85115 -2.24863,-1.96939 -4.99695,-2.48497 -2.74832,-0.51559 -5.29832,-1.42147 -5.66667,-2.01306 -0.36834,-0.59158 -4.2044,-1.51622 -8.52456,-2.05476 -5.78349,-0.72094 -7.60512,-0.57509 -6.90786,0.55308 0.52084,0.84272 1.5055,1.18703 2.18817,0.76511 0.68265,-0.42191 1.2412,0.16831 1.2412,1.31159 0,1.14328 0.6,2.07869 1.33333,2.07869 0.73334,0 1.33334,1.06665 1.33334,2.37035 0,1.30369 1.05,3.34494 2.33333,4.53612 4.223,3.91976 7.84508,8.38873 8.72107,10.7602 0.47405,1.28333 1.3847,2.33333 2.02368,2.33333 0.63896,0 1.95016,2.38888 2.91377,5.30863 0.9636,2.91974 2.70963,5.61885 3.88007,5.998 2.48108,0.8037 5.48013,6.68441 5.41901,10.62585 -0.0387,2.49072 -2.85381,7.51233 -4.10459,7.32161 -0.28582,-0.0436 -1.56968,-1.14392 -2.85301,-2.44518 z M 493.33333,173.33333 C 493.33333,172.6 491.26875,172 488.74536,172 c -2.52339,0 -4.9588,-0.6 -5.41203,-1.33334 -0.45322,-0.73333 -1.98864,-1.33333 -3.41202,-1.33333 -1.42339,0 -2.58798,-0.81239 -2.58798,-1.80531 0,-0.9929 -1.39153,-3.30678 -3.09229,-5.14194 -5.64413,-6.09011 -6.74425,-10.65276 -4.91108,-20.36819 0.90125,-4.77651 2.08392,-8.68456 2.62813,-8.68456 0.54422,0 1.54179,-1.95 2.21683,-4.33333 0.67503,-2.38333 2.52903,-4.91149 4.11999,-5.61812 1.59094,-0.70663 3.67446,-2.80663 4.63002,-4.66667 0.95556,-1.86003 2.48836,-3.86169 3.40623,-4.44813 0.91787,-0.58644 1.66884,-1.93644 1.66884,-3 0,-1.06356 0.76755,-1.93375 1.70565,-1.93375 0.93811,0 2.57056,-1.2 3.62768,-2.66666 C 494.39045,105.2 496.00179,104 496.91411,104 c 0.9123,0 2.30096,-1.2 3.08589,-2.66667 0.78493,-1.466665 2.32488,-2.666665 3.42209,-2.666665 1.09722,0 2.3403,-0.9 2.7624,-2 0.42212,-1.1 1.62212,-2 2.66667,-2 1.04456,0 2.24456,-0.9 2.66667,-2 0.42212,-1.1 1.34614,-2 2.0534,-2 0.70725,0 2.2517,-0.965785 3.4321,-2.14619 1.56407,-1.564063 3.726,-1.968124 7.97063,-1.489692 3.20344,0.361073 6.2448,1.077047 6.75857,1.591051 1.49903,1.499693 0.96763,24.782676 -0.5888,25.798176 -0.76989,0.50233 -1.80362,2.56332 -2.29717,4.57999 -0.60304,2.46402 -1.76368,3.66667 -3.53863,3.66667 -2.28282,0 -2.64126,-0.9104 -2.64126,-6.70852 0,-4.73313 0.58892,-6.9345 2,-7.47598 1.4007,-0.53751 2,-2.72235 2,-7.29149 0,-5.635125 -0.36334,-6.524015 -2.66667,-6.524015 -1.46667,0 -2.66667,0.6 -2.66667,1.333334 0,0.733333 -1.1,1.333333 -2.44444,1.333333 -1.34445,0 -2.89445,0.45 -3.44445,1 -0.55,0.55 -1.4,1.015339 -1.88888,1.034084 -0.48889,0.01875 -4.02604,3.168744 -7.86033,7.000004 -3.83428,3.83125 -7.88428,6.96591 -9,6.96591 -1.1161,0 -2.02856,1.15908 -2.02856,2.57682 0,1.41725 -1.13547,2.9372 -2.52327,3.37767 -1.3878,0.44047 -3.30375,2.7309 -4.25764,5.08985 -0.95389,2.35895 -2.21673,4.62336 -2.80631,5.03203 -0.58957,0.40867 -1.76876,5.67036 -2.62042,11.69267 -1.65276,11.68701 -0.90764,14.98337 4.66797,20.65079 2.75285,2.79817 15.26563,3.51429 16.84187,0.96388 0.96906,-1.56798 8.58861,-4.05038 12.43233,-4.05038 2.02107,0 2.35137,0.93179 2.0088,5.66667 -0.36945,5.10632 -0.83851,5.79281 -4.74333,6.9424 -2.38334,0.70164 -4.33334,1.75164 -4.33334,2.33333 0,0.58168 -3.6,1.0576 -8,1.0576 -4.44444,0 -8,-0.59258 -8,-1.33333 z"
       style="fill:#000000;stroke-width:1.33333337" />
  </g>
</svg>
